<svg xmlns="http://www.w3.org/2000/svg" viewBox="0 0 850 684" font-family="system-ui, -apple-system, sans-serif">
  <rect width="850" height="684" fill="#000000"/>
  <text x="425.0" y="32" text-anchor="middle" fill="#f9fafb" font-size="13" font-weight="700">PUSH/PULL throughput: 2-process, TCP loopback (higher is better)</text>
  <text x="425.0" y="46" text-anchor="middle" fill="#9ca3af" font-size="10">Linux VM on a 2018 Mac Mini, 6 cores, performance governor, turbo off</text>
  <line x1="90" y1="350.5" x2="760" y2="350.5" stroke="#374151" stroke-width="1"/>
  <text x="82" y="350.5" text-anchor="end" dominant-baseline="middle" fill="#e5e7eb" font-size="10">500k</text>
  <text x="768" y="350.5" text-anchor="start" dominant-baseline="middle" fill="#9ca3af" font-size="10">500 MB/s</text>
  <line x1="90" y1="317.0" x2="760" y2="317.0" stroke="#374151" stroke-width="1"/>
  <text x="82" y="317.0" text-anchor="end" dominant-baseline="middle" fill="#e5e7eb" font-size="10">1M</text>
  <text x="768" y="317.0" text-anchor="start" dominant-baseline="middle" fill="#9ca3af" font-size="10">1 GB/s</text>
  <line x1="90" y1="283.5" x2="760" y2="283.5" stroke="#374151" stroke-width="1"/>
  <text x="82" y="283.5" text-anchor="end" dominant-baseline="middle" fill="#e5e7eb" font-size="10">1.5M</text>
  <text x="768" y="283.5" text-anchor="start" dominant-baseline="middle" fill="#9ca3af" font-size="10">1.5 GB/s</text>
  <line x1="90" y1="250.0" x2="760" y2="250.0" stroke="#374151" stroke-width="1"/>
  <text x="82" y="250.0" text-anchor="end" dominant-baseline="middle" fill="#e5e7eb" font-size="10">2M</text>
  <text x="768" y="250.0" text-anchor="start" dominant-baseline="middle" fill="#9ca3af" font-size="10">2 GB/s</text>
  <line x1="90" y1="216.5" x2="760" y2="216.5" stroke="#374151" stroke-width="1"/>
  <text x="82" y="216.5" text-anchor="end" dominant-baseline="middle" fill="#e5e7eb" font-size="10">2.5M</text>
  <text x="768" y="216.5" text-anchor="start" dominant-baseline="middle" fill="#9ca3af" font-size="10">2.5 GB/s</text>
  <line x1="90" y1="183.0" x2="760" y2="183.0" stroke="#374151" stroke-width="1"/>
  <text x="82" y="183.0" text-anchor="end" dominant-baseline="middle" fill="#e5e7eb" font-size="10">3M</text>
  <text x="768" y="183.0" text-anchor="start" dominant-baseline="middle" fill="#9ca3af" font-size="10">3 GB/s</text>
  <line x1="90" y1="149.5" x2="760" y2="149.5" stroke="#374151" stroke-width="1"/>
  <text x="82" y="149.5" text-anchor="end" dominant-baseline="middle" fill="#e5e7eb" font-size="10">3.5M</text>
  <text x="768" y="149.5" text-anchor="start" dominant-baseline="middle" fill="#9ca3af" font-size="10">3.5 GB/s</text>
  <line x1="90" y1="116.0" x2="760" y2="116.0" stroke="#374151" stroke-width="1"/>
  <text x="82" y="116.0" text-anchor="end" dominant-baseline="middle" fill="#e5e7eb" font-size="10">4M</text>
  <text x="768" y="116.0" text-anchor="start" dominant-baseline="middle" fill="#9ca3af" font-size="10">4 GB/s</text>
  <line x1="90" y1="82.5" x2="760" y2="82.5" stroke="#374151" stroke-width="1"/>
  <text x="82" y="82.5" text-anchor="end" dominant-baseline="middle" fill="#e5e7eb" font-size="10">4.5M</text>
  <text x="768" y="82.5" text-anchor="start" dominant-baseline="middle" fill="#9ca3af" font-size="10">4.5 GB/s</text>
  <line x1="90" y1="49.0" x2="760" y2="49.0" stroke="#374151" stroke-width="1"/>
  <text x="82" y="49.0" text-anchor="end" dominant-baseline="middle" fill="#e5e7eb" font-size="10">5M</text>
  <text x="768" y="49.0" text-anchor="start" dominant-baseline="middle" fill="#9ca3af" font-size="10">5 GB/s</text>
  <line x1="90.0" y1="49" x2="90.0" y2="384" stroke="#374151" stroke-width="1"/>
  <line x1="150.9" y1="49" x2="150.9" y2="384" stroke="#374151" stroke-width="1"/>
  <line x1="211.8" y1="49" x2="211.8" y2="384" stroke="#374151" stroke-width="1"/>
  <line x1="272.7" y1="49" x2="272.7" y2="384" stroke="#374151" stroke-width="1"/>
  <line x1="333.6" y1="49" x2="333.6" y2="384" stroke="#374151" stroke-width="1"/>
  <line x1="394.5" y1="49" x2="394.5" y2="384" stroke="#374151" stroke-width="1"/>
  <line x1="455.5" y1="49" x2="455.5" y2="384" stroke="#374151" stroke-width="1"/>
  <line x1="516.4" y1="49" x2="516.4" y2="384" stroke="#374151" stroke-width="1"/>
  <line x1="577.3" y1="49" x2="577.3" y2="384" stroke="#374151" stroke-width="1"/>
  <line x1="638.2" y1="49" x2="638.2" y2="384" stroke="#374151" stroke-width="1"/>
  <line x1="699.1" y1="49" x2="699.1" y2="384" stroke="#374151" stroke-width="1"/>
  <line x1="760.0" y1="49" x2="760.0" y2="384" stroke="#374151" stroke-width="1"/>
  <line x1="90" y1="49" x2="90" y2="384" stroke="#9ca3af" stroke-width="1.5"/>
  <line x1="760" y1="49" x2="760" y2="384" stroke="#9ca3af" stroke-width="1.5"/>
  <line x1="90" y1="384" x2="760" y2="384" stroke="#9ca3af" stroke-width="1.5"/>
  <text x="40" y="216" text-anchor="middle" dominant-baseline="middle" fill="#e5e7eb" font-size="10" font-weight="600" transform="rotate(-90,40,216)">msg/s</text>
  <polyline points="90.0,210.0 150.9,218.9 211.8,226.7 272.7,298.5 333.6,305.8 394.5,318.1 455.5,333.2 516.4,355.0 577.3,361.8 638.2,364.9 699.1,372.3 760.0,377.5" fill="none" stroke="#ef4444" stroke-width="2.5" stroke-linecap="round" stroke-linejoin="round" stroke-dasharray="6,4"/>
  <polyline points="90.0,145.0 150.9,157.5 211.8,184.4 272.7,272.0 333.6,282.5 394.5,306.1 455.5,342.2 516.4,364.4 577.3,380.0 638.2,380.1 699.1,380.3 760.0,380.6" fill="none" stroke="#60a5fa" stroke-width="2.5" stroke-linecap="round" stroke-linejoin="round" stroke-dasharray="6,4"/>
  <polyline points="90.0,381.2 150.9,378.7 211.8,373.9 272.7,373.1 333.6,364.0 394.5,350.3 455.5,331.9 516.4,324.7 577.3,293.1 638.2,227.3 699.1,192.1 760.0,169.9" fill="none" stroke="#ef4444" stroke-width="2.5" stroke-linecap="round" stroke-linejoin="round"/>
  <circle cx="90.0" cy="381.2" r="3" fill="#ef4444" stroke="#000000" stroke-width="1"/>
  <circle cx="150.9" cy="378.7" r="3" fill="#ef4444" stroke="#000000" stroke-width="1"/>
  <circle cx="211.8" cy="373.9" r="3" fill="#ef4444" stroke="#000000" stroke-width="1"/>
  <circle cx="272.7" cy="373.1" r="3" fill="#ef4444" stroke="#000000" stroke-width="1"/>
  <circle cx="333.6" cy="364.0" r="3" fill="#ef4444" stroke="#000000" stroke-width="1"/>
  <circle cx="394.5" cy="350.3" r="3" fill="#ef4444" stroke="#000000" stroke-width="1"/>
  <circle cx="455.5" cy="331.9" r="3" fill="#ef4444" stroke="#000000" stroke-width="1"/>
  <circle cx="516.4" cy="324.7" r="3" fill="#ef4444" stroke="#000000" stroke-width="1"/>
  <circle cx="577.3" cy="293.1" r="3" fill="#ef4444" stroke="#000000" stroke-width="1"/>
  <circle cx="638.2" cy="227.3" r="3" fill="#ef4444" stroke="#000000" stroke-width="1"/>
  <circle cx="699.1" cy="192.1" r="3" fill="#ef4444" stroke="#000000" stroke-width="1"/>
  <circle cx="760.0" cy="169.9" r="3" fill="#ef4444" stroke="#000000" stroke-width="1"/>
  <polyline points="90.0,380.2 150.9,376.8 211.8,371.2 272.7,369.7 333.6,358.0 394.5,344.1 455.5,341.2 516.4,343.8 577.3,367.8 638.2,352.1 699.1,323.2 760.0,273.1" fill="none" stroke="#60a5fa" stroke-width="2.5" stroke-linecap="round" stroke-linejoin="round"/>
  <circle cx="90.0" cy="380.2" r="3" fill="#60a5fa" stroke="#000000" stroke-width="1"/>
  <circle cx="150.9" cy="376.8" r="3" fill="#60a5fa" stroke="#000000" stroke-width="1"/>
  <circle cx="211.8" cy="371.2" r="3" fill="#60a5fa" stroke="#000000" stroke-width="1"/>
  <circle cx="272.7" cy="369.7" r="3" fill="#60a5fa" stroke="#000000" stroke-width="1"/>
  <circle cx="333.6" cy="358.0" r="3" fill="#60a5fa" stroke="#000000" stroke-width="1"/>
  <circle cx="394.5" cy="344.1" r="3" fill="#60a5fa" stroke="#000000" stroke-width="1"/>
  <circle cx="455.5" cy="341.2" r="3" fill="#60a5fa" stroke="#000000" stroke-width="1"/>
  <circle cx="516.4" cy="343.8" r="3" fill="#60a5fa" stroke="#000000" stroke-width="1"/>
  <circle cx="577.3" cy="367.8" r="3" fill="#60a5fa" stroke="#000000" stroke-width="1"/>
  <circle cx="638.2" cy="352.1" r="3" fill="#60a5fa" stroke="#000000" stroke-width="1"/>
  <circle cx="699.1" cy="323.2" r="3" fill="#60a5fa" stroke="#000000" stroke-width="1"/>
  <circle cx="760.0" cy="273.1" r="3" fill="#60a5fa" stroke="#000000" stroke-width="1"/>
  <text x="90.0" y="398" text-anchor="middle" fill="#e5e7eb" font-size="8.5">16 B</text>
  <text x="150.9" y="398" text-anchor="middle" fill="#e5e7eb" font-size="8.5">32 B</text>
  <text x="211.8" y="398" text-anchor="middle" fill="#e5e7eb" font-size="8.5">64 B</text>
  <text x="272.7" y="398" text-anchor="middle" fill="#e5e7eb" font-size="8.5">128 B</text>
  <text x="333.6" y="398" text-anchor="middle" fill="#e5e7eb" font-size="8.5">256 B</text>
  <text x="394.5" y="398" text-anchor="middle" fill="#e5e7eb" font-size="8.5">512 B</text>
  <text x="455.5" y="398" text-anchor="middle" fill="#e5e7eb" font-size="8.5">1 KiB</text>
  <text x="516.4" y="398" text-anchor="middle" fill="#e5e7eb" font-size="8.5">2 KiB</text>
  <text x="577.3" y="398" text-anchor="middle" fill="#e5e7eb" font-size="8.5">4 KiB</text>
  <text x="638.2" y="398" text-anchor="middle" fill="#e5e7eb" font-size="8.5">8 KiB</text>
  <text x="699.1" y="398" text-anchor="middle" fill="#e5e7eb" font-size="8.5">16 KiB</text>
  <text x="760.0" y="398" text-anchor="middle" fill="#e5e7eb" font-size="8.5">32 KiB</text>
  <line x1="356" y1="424" x2="370" y2="424" stroke="#ef4444" stroke-width="2.5"/>
  <circle cx="363" cy="424" r="2.5" fill="#ef4444"/>
  <text x="376" y="428" fill="#e5e7eb" font-size="11" font-weight="500">OMQ.lua</text>
  <line x1="449" y1="424" x2="463" y2="424" stroke="#60a5fa" stroke-width="2.5"/>
  <circle cx="456" cy="424" r="2.5" fill="#60a5fa"/>
  <text x="469" y="428" fill="#e5e7eb" font-size="11" font-weight="500">lzmq</text>
  <text x="425.0" y="442" text-anchor="middle" fill="#9ca3af" font-size="9">dashed = msg/s (left), solid = throughput (right)</text>
  <text x="425.0" y="472" text-anchor="middle" fill="#f9fafb" font-size="13" font-weight="700">REQ/REP latency: 2-process, TCP loopback, p50 us (lower is better)</text>
  <line x1="90" y1="597.0" x2="760" y2="597.0" stroke="#374151" stroke-width="1"/>
  <text x="82" y="597.0" text-anchor="end" dominant-baseline="middle" fill="#e5e7eb" font-size="10">20 us</text>
  <line x1="90" y1="585.0" x2="760" y2="585.0" stroke="#374151" stroke-width="1"/>
  <text x="82" y="585.0" text-anchor="end" dominant-baseline="middle" fill="#e5e7eb" font-size="10">40 us</text>
  <line x1="90" y1="573.0" x2="760" y2="573.0" stroke="#374151" stroke-width="1"/>
  <text x="82" y="573.0" text-anchor="end" dominant-baseline="middle" fill="#e5e7eb" font-size="10">60 us</text>
  <line x1="90" y1="561.0" x2="760" y2="561.0" stroke="#374151" stroke-width="1"/>
  <text x="82" y="561.0" text-anchor="end" dominant-baseline="middle" fill="#e5e7eb" font-size="10">80 us</text>
  <line x1="90" y1="549.0" x2="760" y2="549.0" stroke="#374151" stroke-width="1"/>
  <text x="82" y="549.0" text-anchor="end" dominant-baseline="middle" fill="#e5e7eb" font-size="10">100 us</text>
  <line x1="90" y1="537.0" x2="760" y2="537.0" stroke="#374151" stroke-width="1"/>
  <text x="82" y="537.0" text-anchor="end" dominant-baseline="middle" fill="#e5e7eb" font-size="10">120 us</text>
  <line x1="90" y1="525.0" x2="760" y2="525.0" stroke="#374151" stroke-width="1"/>
  <text x="82" y="525.0" text-anchor="end" dominant-baseline="middle" fill="#e5e7eb" font-size="10">140 us</text>
  <line x1="90" y1="513.0" x2="760" y2="513.0" stroke="#374151" stroke-width="1"/>
  <text x="82" y="513.0" text-anchor="end" dominant-baseline="middle" fill="#e5e7eb" font-size="10">160 us</text>
  <line x1="90" y1="501.0" x2="760" y2="501.0" stroke="#374151" stroke-width="1"/>
  <text x="82" y="501.0" text-anchor="end" dominant-baseline="middle" fill="#e5e7eb" font-size="10">180 us</text>
  <line x1="90" y1="489.0" x2="760" y2="489.0" stroke="#374151" stroke-width="1"/>
  <text x="82" y="489.0" text-anchor="end" dominant-baseline="middle" fill="#e5e7eb" font-size="10">200 us</text>
  <line x1="90.0" y1="489" x2="90.0" y2="609" stroke="#374151" stroke-width="1"/>
  <line x1="173.8" y1="489" x2="173.8" y2="609" stroke="#374151" stroke-width="1"/>
  <line x1="257.5" y1="489" x2="257.5" y2="609" stroke="#374151" stroke-width="1"/>
  <line x1="341.2" y1="489" x2="341.2" y2="609" stroke="#374151" stroke-width="1"/>
  <line x1="425.0" y1="489" x2="425.0" y2="609" stroke="#374151" stroke-width="1"/>
  <line x1="508.8" y1="489" x2="508.8" y2="609" stroke="#374151" stroke-width="1"/>
  <line x1="592.5" y1="489" x2="592.5" y2="609" stroke="#374151" stroke-width="1"/>
  <line x1="676.2" y1="489" x2="676.2" y2="609" stroke="#374151" stroke-width="1"/>
  <line x1="760.0" y1="489" x2="760.0" y2="609" stroke="#374151" stroke-width="1"/>
  <line x1="90" y1="489" x2="90" y2="609" stroke="#9ca3af" stroke-width="1.5"/>
  <line x1="90" y1="609" x2="760" y2="609" stroke="#9ca3af" stroke-width="1.5"/>
  <text x="40" y="549" text-anchor="middle" dominant-baseline="middle" fill="#e5e7eb" font-size="10" font-weight="600" transform="rotate(-90,40,549)">p50 latency (us)</text>
  <polyline points="90.0,570.6 173.8,570.8 257.5,567.0 341.2,565.6 425.0,566.3 508.8,566.0 592.5,565.4 676.2,564.5 760.0,558.5" fill="none" stroke="#ef4444" stroke-width="2.5" stroke-linecap="round" stroke-linejoin="round"/>
  <circle cx="90.0" cy="570.6" r="3" fill="#ef4444" stroke="#000000" stroke-width="1"/>
  <circle cx="173.8" cy="570.8" r="3" fill="#ef4444" stroke="#000000" stroke-width="1"/>
  <circle cx="257.5" cy="567.0" r="3" fill="#ef4444" stroke="#000000" stroke-width="1"/>
  <circle cx="341.2" cy="565.6" r="3" fill="#ef4444" stroke="#000000" stroke-width="1"/>
  <circle cx="425.0" cy="566.3" r="3" fill="#ef4444" stroke="#000000" stroke-width="1"/>
  <circle cx="508.8" cy="566.0" r="3" fill="#ef4444" stroke="#000000" stroke-width="1"/>
  <circle cx="592.5" cy="565.4" r="3" fill="#ef4444" stroke="#000000" stroke-width="1"/>
  <circle cx="676.2" cy="564.5" r="3" fill="#ef4444" stroke="#000000" stroke-width="1"/>
  <circle cx="760.0" cy="558.5" r="3" fill="#ef4444" stroke="#000000" stroke-width="1"/>
  <polyline points="90.0,549.6 173.8,550.7 257.5,551.4 341.2,548.4 425.0,548.9 508.8,548.7 592.5,550.2 676.2,548.7 760.0,547.8" fill="none" stroke="#60a5fa" stroke-width="2.5" stroke-linecap="round" stroke-linejoin="round"/>
  <circle cx="90.0" cy="549.6" r="3" fill="#60a5fa" stroke="#000000" stroke-width="1"/>
  <circle cx="173.8" cy="550.7" r="3" fill="#60a5fa" stroke="#000000" stroke-width="1"/>
  <circle cx="257.5" cy="551.4" r="3" fill="#60a5fa" stroke="#000000" stroke-width="1"/>
  <circle cx="341.2" cy="548.4" r="3" fill="#60a5fa" stroke="#000000" stroke-width="1"/>
  <circle cx="425.0" cy="548.9" r="3" fill="#60a5fa" stroke="#000000" stroke-width="1"/>
  <circle cx="508.8" cy="548.7" r="3" fill="#60a5fa" stroke="#000000" stroke-width="1"/>
  <circle cx="592.5" cy="550.2" r="3" fill="#60a5fa" stroke="#000000" stroke-width="1"/>
  <circle cx="676.2" cy="548.7" r="3" fill="#60a5fa" stroke="#000000" stroke-width="1"/>
  <circle cx="760.0" cy="547.8" r="3" fill="#60a5fa" stroke="#000000" stroke-width="1"/>
  <text x="90.0" y="623" text-anchor="middle" fill="#e5e7eb" font-size="8.5">16 B</text>
  <text x="173.8" y="623" text-anchor="middle" fill="#e5e7eb" font-size="8.5">32 B</text>
  <text x="257.5" y="623" text-anchor="middle" fill="#e5e7eb" font-size="8.5">64 B</text>
  <text x="341.2" y="623" text-anchor="middle" fill="#e5e7eb" font-size="8.5">128 B</text>
  <text x="425.0" y="623" text-anchor="middle" fill="#e5e7eb" font-size="8.5">256 B</text>
  <text x="508.8" y="623" text-anchor="middle" fill="#e5e7eb" font-size="8.5">512 B</text>
  <text x="592.5" y="623" text-anchor="middle" fill="#e5e7eb" font-size="8.5">1 KiB</text>
  <text x="676.2" y="623" text-anchor="middle" fill="#e5e7eb" font-size="8.5">2 KiB</text>
  <text x="760.0" y="623" text-anchor="middle" fill="#e5e7eb" font-size="8.5">4 KiB</text>
  <line x1="356" y1="649" x2="370" y2="649" stroke="#ef4444" stroke-width="2.5"/>
  <circle cx="363" cy="649" r="2.5" fill="#ef4444"/>
  <text x="376" y="653" fill="#e5e7eb" font-size="11" font-weight="500">OMQ.lua</text>
  <line x1="449" y1="649" x2="463" y2="649" stroke="#60a5fa" stroke-width="2.5"/>
  <circle cx="456" cy="649" r="2.5" fill="#60a5fa"/>
  <text x="469" y="653" fill="#e5e7eb" font-size="11" font-weight="500">lzmq</text>
</svg>
