<svg xmlns="http://www.w3.org/2000/svg" viewBox="0 0 850 824" font-family="system-ui, -apple-system, sans-serif">
  <rect width="850" height="824" fill="#000000"/>
  <text x="425.0" y="44" text-anchor="middle" fill="#f9fafb" font-size="13" font-weight="700">PUSH/PULL throughput: 2-process, TCP loopback (higher is better)</text>
  <text x="425.0" y="58" text-anchor="middle" fill="#9ca3af" font-size="10">Linux VM on a 2018 Mac Mini, 6 cores, performance governor, turbo off</text>
  <line x1="60" y1="410.5" x2="395" y2="410.5" stroke="#374151" stroke-width="1"/>
  <text x="52" y="410.5" text-anchor="end" dominant-baseline="middle" fill="#e5e7eb" font-size="10">200k</text>
  <line x1="60" y1="377.0" x2="395" y2="377.0" stroke="#374151" stroke-width="1"/>
  <text x="52" y="377.0" text-anchor="end" dominant-baseline="middle" fill="#e5e7eb" font-size="10">400k</text>
  <line x1="60" y1="343.5" x2="395" y2="343.5" stroke="#374151" stroke-width="1"/>
  <text x="52" y="343.5" text-anchor="end" dominant-baseline="middle" fill="#e5e7eb" font-size="10">600k</text>
  <line x1="60" y1="310.0" x2="395" y2="310.0" stroke="#374151" stroke-width="1"/>
  <text x="52" y="310.0" text-anchor="end" dominant-baseline="middle" fill="#e5e7eb" font-size="10">800k</text>
  <line x1="60" y1="276.5" x2="395" y2="276.5" stroke="#374151" stroke-width="1"/>
  <text x="52" y="276.5" text-anchor="end" dominant-baseline="middle" fill="#e5e7eb" font-size="10">1M</text>
  <line x1="60" y1="243.0" x2="395" y2="243.0" stroke="#374151" stroke-width="1"/>
  <text x="52" y="243.0" text-anchor="end" dominant-baseline="middle" fill="#e5e7eb" font-size="10">1.2M</text>
  <line x1="60" y1="209.5" x2="395" y2="209.5" stroke="#374151" stroke-width="1"/>
  <text x="52" y="209.5" text-anchor="end" dominant-baseline="middle" fill="#e5e7eb" font-size="10">1.4M</text>
  <line x1="60" y1="176.0" x2="395" y2="176.0" stroke="#374151" stroke-width="1"/>
  <text x="52" y="176.0" text-anchor="end" dominant-baseline="middle" fill="#e5e7eb" font-size="10">1.6M</text>
  <line x1="60" y1="142.5" x2="395" y2="142.5" stroke="#374151" stroke-width="1"/>
  <text x="52" y="142.5" text-anchor="end" dominant-baseline="middle" fill="#e5e7eb" font-size="10">1.8M</text>
  <line x1="60" y1="109.0" x2="395" y2="109.0" stroke="#374151" stroke-width="1"/>
  <text x="52" y="109.0" text-anchor="end" dominant-baseline="middle" fill="#e5e7eb" font-size="10">2M</text>
  <line x1="60.0" y1="109" x2="60.0" y2="444" stroke="#374151" stroke-width="1"/>
  <line x1="107.9" y1="109" x2="107.9" y2="444" stroke="#374151" stroke-width="1"/>
  <line x1="155.7" y1="109" x2="155.7" y2="444" stroke="#374151" stroke-width="1"/>
  <line x1="203.6" y1="109" x2="203.6" y2="444" stroke="#374151" stroke-width="1"/>
  <line x1="251.4" y1="109" x2="251.4" y2="444" stroke="#374151" stroke-width="1"/>
  <line x1="299.3" y1="109" x2="299.3" y2="444" stroke="#374151" stroke-width="1"/>
  <line x1="347.1" y1="109" x2="347.1" y2="444" stroke="#374151" stroke-width="1"/>
  <line x1="395.0" y1="109" x2="395.0" y2="444" stroke="#374151" stroke-width="1"/>
  <line x1="60" y1="109" x2="60" y2="444" stroke="#9ca3af" stroke-width="1.5"/>
  <line x1="60" y1="444" x2="395" y2="444" stroke="#9ca3af" stroke-width="1.5"/>
  <line x1="455" y1="402.1" x2="790" y2="402.1" stroke="#374151" stroke-width="1"/>
  <text x="798" y="402.1" text-anchor="start" dominant-baseline="middle" fill="#e5e7eb" font-size="10">0.5 GB/s</text>
  <line x1="455" y1="360.2" x2="790" y2="360.2" stroke="#374151" stroke-width="1"/>
  <text x="798" y="360.2" text-anchor="start" dominant-baseline="middle" fill="#e5e7eb" font-size="10">1 GB/s</text>
  <line x1="455" y1="318.4" x2="790" y2="318.4" stroke="#374151" stroke-width="1"/>
  <text x="798" y="318.4" text-anchor="start" dominant-baseline="middle" fill="#e5e7eb" font-size="10">1.5 GB/s</text>
  <line x1="455" y1="276.5" x2="790" y2="276.5" stroke="#374151" stroke-width="1"/>
  <text x="798" y="276.5" text-anchor="start" dominant-baseline="middle" fill="#e5e7eb" font-size="10">2 GB/s</text>
  <line x1="455" y1="234.6" x2="790" y2="234.6" stroke="#374151" stroke-width="1"/>
  <text x="798" y="234.6" text-anchor="start" dominant-baseline="middle" fill="#e5e7eb" font-size="10">2.5 GB/s</text>
  <line x1="455" y1="192.8" x2="790" y2="192.8" stroke="#374151" stroke-width="1"/>
  <text x="798" y="192.8" text-anchor="start" dominant-baseline="middle" fill="#e5e7eb" font-size="10">3 GB/s</text>
  <line x1="455" y1="150.9" x2="790" y2="150.9" stroke="#374151" stroke-width="1"/>
  <text x="798" y="150.9" text-anchor="start" dominant-baseline="middle" fill="#e5e7eb" font-size="10">3.5 GB/s</text>
  <line x1="455" y1="109.0" x2="790" y2="109.0" stroke="#374151" stroke-width="1"/>
  <text x="798" y="109.0" text-anchor="start" dominant-baseline="middle" fill="#e5e7eb" font-size="10">4 GB/s</text>
  <line x1="455.0" y1="109" x2="455.0" y2="444" stroke="#374151" stroke-width="1"/>
  <line x1="502.9" y1="109" x2="502.9" y2="444" stroke="#374151" stroke-width="1"/>
  <line x1="550.7" y1="109" x2="550.7" y2="444" stroke="#374151" stroke-width="1"/>
  <line x1="598.6" y1="109" x2="598.6" y2="444" stroke="#374151" stroke-width="1"/>
  <line x1="646.4" y1="109" x2="646.4" y2="444" stroke="#374151" stroke-width="1"/>
  <line x1="694.3" y1="109" x2="694.3" y2="444" stroke="#374151" stroke-width="1"/>
  <line x1="742.1" y1="109" x2="742.1" y2="444" stroke="#374151" stroke-width="1"/>
  <line x1="790.0" y1="109" x2="790.0" y2="444" stroke="#374151" stroke-width="1"/>
  <line x1="790" y1="109" x2="790" y2="444" stroke="#9ca3af" stroke-width="1.5"/>
  <line x1="455" y1="444" x2="790" y2="444" stroke="#9ca3af" stroke-width="1.5"/>
  <text x="227.5" y="92" text-anchor="middle" fill="#f9fafb" font-size="12" font-weight="700">small messages</text>
  <text x="622.5" y="92" text-anchor="middle" fill="#f9fafb" font-size="12" font-weight="700">medium/large messages</text>
  <polyline points="60.0,158.2 107.9,139.8 155.7,151.5 203.6,196.5 251.4,258.0 299.3,258.2 347.1,262.3 395.0,278.2" fill="none" stroke="#ef4444" stroke-width="2" stroke-dasharray="6,4" stroke-linecap="round" stroke-linejoin="round"/>
  <polyline points="60.0,212.9 107.9,218.5 155.7,212.4 203.6,239.5 251.4,276.3 299.3,283.6 347.1,271.3 395.0,299.1" fill="none" stroke="#fb923c" stroke-width="2" stroke-dasharray="6,4" stroke-linecap="round" stroke-linejoin="round"/>
  <polyline points="60.0,405.7 107.9,407.0 155.7,406.4 203.6,409.9 251.4,410.4 299.3,411.3 347.1,411.8 395.0,412.1" fill="none" stroke="#60a5fa" stroke-width="2" stroke-dasharray="6,4" stroke-linecap="round" stroke-linejoin="round"/>
  <polyline points="455.0,420.2 502.9,397.5 550.7,359.1 598.6,316.3 646.4,271.0 694.3,209.3 742.1,182.7 790.0,166.1" fill="none" stroke="#ef4444" stroke-width="2.5" stroke-linecap="round" stroke-linejoin="round"/>
  <circle cx="455.0" cy="420.2" r="3" fill="#ef4444" stroke="#000000" stroke-width="1"/>
  <circle cx="502.9" cy="397.5" r="3" fill="#ef4444" stroke="#000000" stroke-width="1"/>
  <circle cx="550.7" cy="359.1" r="3" fill="#ef4444" stroke="#000000" stroke-width="1"/>
  <circle cx="598.6" cy="316.3" r="3" fill="#ef4444" stroke="#000000" stroke-width="1"/>
  <circle cx="646.4" cy="271.0" r="3" fill="#ef4444" stroke="#000000" stroke-width="1"/>
  <circle cx="694.3" cy="209.3" r="3" fill="#ef4444" stroke="#000000" stroke-width="1"/>
  <circle cx="742.1" cy="182.7" r="3" fill="#ef4444" stroke="#000000" stroke-width="1"/>
  <circle cx="790.0" cy="166.1" r="3" fill="#ef4444" stroke="#000000" stroke-width="1"/>
  <polyline points="455.0,423.5 502.9,399.8 550.7,369.8 598.6,309.2 646.4,270.2 694.3,213.3 742.1,183.6 790.0,172.5" fill="none" stroke="#fb923c" stroke-width="2.5" stroke-linecap="round" stroke-linejoin="round"/>
  <circle cx="455.0" cy="423.5" r="3" fill="#fb923c" stroke="#000000" stroke-width="1"/>
  <circle cx="502.9" cy="399.8" r="3" fill="#fb923c" stroke="#000000" stroke-width="1"/>
  <circle cx="550.7" cy="369.8" r="3" fill="#fb923c" stroke="#000000" stroke-width="1"/>
  <circle cx="598.6" cy="309.2" r="3" fill="#fb923c" stroke="#000000" stroke-width="1"/>
  <circle cx="646.4" cy="270.2" r="3" fill="#fb923c" stroke="#000000" stroke-width="1"/>
  <circle cx="694.3" cy="213.3" r="3" fill="#fb923c" stroke="#000000" stroke-width="1"/>
  <circle cx="742.1" cy="183.6" r="3" fill="#fb923c" stroke="#000000" stroke-width="1"/>
  <circle cx="790.0" cy="172.5" r="3" fill="#fb923c" stroke="#000000" stroke-width="1"/>
  <polyline points="455.0,439.8 502.9,435.8 550.7,427.6 598.6,412.3 646.4,387.3 694.3,357.1 742.1,354.4 790.0,292.3" fill="none" stroke="#60a5fa" stroke-width="2.5" stroke-linecap="round" stroke-linejoin="round"/>
  <circle cx="455.0" cy="439.8" r="3" fill="#60a5fa" stroke="#000000" stroke-width="1"/>
  <circle cx="502.9" cy="435.8" r="3" fill="#60a5fa" stroke="#000000" stroke-width="1"/>
  <circle cx="550.7" cy="427.6" r="3" fill="#60a5fa" stroke="#000000" stroke-width="1"/>
  <circle cx="598.6" cy="412.3" r="3" fill="#60a5fa" stroke="#000000" stroke-width="1"/>
  <circle cx="646.4" cy="387.3" r="3" fill="#60a5fa" stroke="#000000" stroke-width="1"/>
  <circle cx="694.3" cy="357.1" r="3" fill="#60a5fa" stroke="#000000" stroke-width="1"/>
  <circle cx="742.1" cy="354.4" r="3" fill="#60a5fa" stroke="#000000" stroke-width="1"/>
  <circle cx="790.0" cy="292.3" r="3" fill="#60a5fa" stroke="#000000" stroke-width="1"/>
  <text x="60.0" y="458" text-anchor="middle" fill="#e5e7eb" font-size="8.5">8 B</text>
  <text x="107.9" y="458" text-anchor="middle" fill="#e5e7eb" font-size="8.5">16 B</text>
  <text x="155.7" y="458" text-anchor="middle" fill="#e5e7eb" font-size="8.5">32 B</text>
  <text x="203.6" y="458" text-anchor="middle" fill="#e5e7eb" font-size="8.5">64 B</text>
  <text x="251.4" y="458" text-anchor="middle" fill="#e5e7eb" font-size="8.5">128 B</text>
  <text x="299.3" y="458" text-anchor="middle" fill="#e5e7eb" font-size="8.5">256 B</text>
  <text x="347.1" y="458" text-anchor="middle" fill="#e5e7eb" font-size="8.5">512 B</text>
  <text x="395.0" y="458" text-anchor="middle" fill="#e5e7eb" font-size="8.5">1 KiB</text>
  <text x="455.0" y="458" text-anchor="middle" fill="#e5e7eb" font-size="8.5">256 B</text>
  <text x="502.9" y="458" text-anchor="middle" fill="#e5e7eb" font-size="8.5">512 B</text>
  <text x="550.7" y="458" text-anchor="middle" fill="#e5e7eb" font-size="8.5">1 KiB</text>
  <text x="598.6" y="458" text-anchor="middle" fill="#e5e7eb" font-size="8.5">2 KiB</text>
  <text x="646.4" y="458" text-anchor="middle" fill="#e5e7eb" font-size="8.5">4 KiB</text>
  <text x="694.3" y="458" text-anchor="middle" fill="#e5e7eb" font-size="8.5">8 KiB</text>
  <text x="742.1" y="458" text-anchor="middle" fill="#e5e7eb" font-size="8.5">16 KiB</text>
  <text x="790.0" y="458" text-anchor="middle" fill="#e5e7eb" font-size="8.5">32 KiB</text>
  <text x="425.0" y="476" text-anchor="middle" fill="#9ca3af" font-size="9">dashed = message rate · solid = bandwidth</text>
  <text x="425.0" y="532" text-anchor="middle" fill="#f9fafb" font-size="13" font-weight="700">REQ/REP latency: 2-process, TCP loopback, p50 μs (lower is better)</text>
  <line x1="60" y1="729.0" x2="790" y2="729.0" stroke="#374151" stroke-width="1"/>
  <text x="52" y="729.0" text-anchor="end" dominant-baseline="middle" fill="#e5e7eb" font-size="10">20 μs</text>
  <line x1="60" y1="709.0" x2="790" y2="709.0" stroke="#374151" stroke-width="1"/>
  <text x="52" y="709.0" text-anchor="end" dominant-baseline="middle" fill="#e5e7eb" font-size="10">40 μs</text>
  <line x1="60" y1="689.0" x2="790" y2="689.0" stroke="#374151" stroke-width="1"/>
  <text x="52" y="689.0" text-anchor="end" dominant-baseline="middle" fill="#e5e7eb" font-size="10">60 μs</text>
  <line x1="60" y1="669.0" x2="790" y2="669.0" stroke="#374151" stroke-width="1"/>
  <text x="52" y="669.0" text-anchor="end" dominant-baseline="middle" fill="#e5e7eb" font-size="10">80 μs</text>
  <line x1="60" y1="649.0" x2="790" y2="649.0" stroke="#374151" stroke-width="1"/>
  <text x="52" y="649.0" text-anchor="end" dominant-baseline="middle" fill="#e5e7eb" font-size="10">100 μs</text>
  <line x1="60" y1="629.0" x2="790" y2="629.0" stroke="#374151" stroke-width="1"/>
  <text x="52" y="629.0" text-anchor="end" dominant-baseline="middle" fill="#e5e7eb" font-size="10">120 μs</text>
  <line x1="60" y1="609.0" x2="790" y2="609.0" stroke="#374151" stroke-width="1"/>
  <text x="52" y="609.0" text-anchor="end" dominant-baseline="middle" fill="#e5e7eb" font-size="10">140 μs</text>
  <line x1="60" y1="589.0" x2="790" y2="589.0" stroke="#374151" stroke-width="1"/>
  <text x="52" y="589.0" text-anchor="end" dominant-baseline="middle" fill="#e5e7eb" font-size="10">160 μs</text>
  <line x1="60" y1="569.0" x2="790" y2="569.0" stroke="#374151" stroke-width="1"/>
  <text x="52" y="569.0" text-anchor="end" dominant-baseline="middle" fill="#e5e7eb" font-size="10">180 μs</text>
  <line x1="60" y1="549.0" x2="790" y2="549.0" stroke="#374151" stroke-width="1"/>
  <text x="52" y="549.0" text-anchor="end" dominant-baseline="middle" fill="#e5e7eb" font-size="10">200 μs</text>
  <line x1="60.0" y1="549" x2="60.0" y2="749" stroke="#374151" stroke-width="1"/>
  <line x1="141.1" y1="549" x2="141.1" y2="749" stroke="#374151" stroke-width="1"/>
  <line x1="222.2" y1="549" x2="222.2" y2="749" stroke="#374151" stroke-width="1"/>
  <line x1="303.3" y1="549" x2="303.3" y2="749" stroke="#374151" stroke-width="1"/>
  <line x1="384.4" y1="549" x2="384.4" y2="749" stroke="#374151" stroke-width="1"/>
  <line x1="465.6" y1="549" x2="465.6" y2="749" stroke="#374151" stroke-width="1"/>
  <line x1="546.7" y1="549" x2="546.7" y2="749" stroke="#374151" stroke-width="1"/>
  <line x1="627.8" y1="549" x2="627.8" y2="749" stroke="#374151" stroke-width="1"/>
  <line x1="708.9" y1="549" x2="708.9" y2="749" stroke="#374151" stroke-width="1"/>
  <line x1="790.0" y1="549" x2="790.0" y2="749" stroke="#374151" stroke-width="1"/>
  <line x1="60" y1="549" x2="60" y2="749" stroke="#9ca3af" stroke-width="1.5"/>
  <line x1="60" y1="749" x2="790" y2="749" stroke="#9ca3af" stroke-width="1.5"/>
  <polyline points="60.0,672.9 141.1,670.8 222.2,674.1 303.3,671.8 384.4,673.1 465.6,674.3 546.7,674.1 627.8,671.0 708.9,669.1 790.0,663.2" fill="none" stroke="#ef4444" stroke-width="2.5" stroke-linecap="round" stroke-linejoin="round"/>
  <circle cx="60.0" cy="672.9" r="3" fill="#ef4444" stroke="#000000" stroke-width="1"/>
  <circle cx="141.1" cy="670.8" r="3" fill="#ef4444" stroke="#000000" stroke-width="1"/>
  <circle cx="222.2" cy="674.1" r="3" fill="#ef4444" stroke="#000000" stroke-width="1"/>
  <circle cx="303.3" cy="671.8" r="3" fill="#ef4444" stroke="#000000" stroke-width="1"/>
  <circle cx="384.4" cy="673.1" r="3" fill="#ef4444" stroke="#000000" stroke-width="1"/>
  <circle cx="465.6" cy="674.3" r="3" fill="#ef4444" stroke="#000000" stroke-width="1"/>
  <circle cx="546.7" cy="674.1" r="3" fill="#ef4444" stroke="#000000" stroke-width="1"/>
  <circle cx="627.8" cy="671.0" r="3" fill="#ef4444" stroke="#000000" stroke-width="1"/>
  <circle cx="708.9" cy="669.1" r="3" fill="#ef4444" stroke="#000000" stroke-width="1"/>
  <circle cx="790.0" cy="663.2" r="3" fill="#ef4444" stroke="#000000" stroke-width="1"/>
  <polyline points="60.0,606.2 141.1,603.1 222.2,595.1 303.3,586.9 384.4,614.6 465.6,601.6 546.7,578.6 627.8,573.4 708.9,595.5 790.0,583.3" fill="none" stroke="#fb923c" stroke-width="2.5" stroke-linecap="round" stroke-linejoin="round"/>
  <circle cx="60.0" cy="606.2" r="3" fill="#fb923c" stroke="#000000" stroke-width="1"/>
  <circle cx="141.1" cy="603.1" r="3" fill="#fb923c" stroke="#000000" stroke-width="1"/>
  <circle cx="222.2" cy="595.1" r="3" fill="#fb923c" stroke="#000000" stroke-width="1"/>
  <circle cx="303.3" cy="586.9" r="3" fill="#fb923c" stroke="#000000" stroke-width="1"/>
  <circle cx="384.4" cy="614.6" r="3" fill="#fb923c" stroke="#000000" stroke-width="1"/>
  <circle cx="465.6" cy="601.6" r="3" fill="#fb923c" stroke="#000000" stroke-width="1"/>
  <circle cx="546.7" cy="578.6" r="3" fill="#fb923c" stroke="#000000" stroke-width="1"/>
  <circle cx="627.8" cy="573.4" r="3" fill="#fb923c" stroke="#000000" stroke-width="1"/>
  <circle cx="708.9" cy="595.5" r="3" fill="#fb923c" stroke="#000000" stroke-width="1"/>
  <circle cx="790.0" cy="583.3" r="3" fill="#fb923c" stroke="#000000" stroke-width="1"/>
  <polyline points="60.0,616.6 141.1,618.9 222.2,616.9 303.3,620.8 384.4,624.2 465.6,613.8 546.7,615.0 627.8,613.7 708.9,613.0 790.0,608.6" fill="none" stroke="#60a5fa" stroke-width="2.5" stroke-linecap="round" stroke-linejoin="round"/>
  <circle cx="60.0" cy="616.6" r="3" fill="#60a5fa" stroke="#000000" stroke-width="1"/>
  <circle cx="141.1" cy="618.9" r="3" fill="#60a5fa" stroke="#000000" stroke-width="1"/>
  <circle cx="222.2" cy="616.9" r="3" fill="#60a5fa" stroke="#000000" stroke-width="1"/>
  <circle cx="303.3" cy="620.8" r="3" fill="#60a5fa" stroke="#000000" stroke-width="1"/>
  <circle cx="384.4" cy="624.2" r="3" fill="#60a5fa" stroke="#000000" stroke-width="1"/>
  <circle cx="465.6" cy="613.8" r="3" fill="#60a5fa" stroke="#000000" stroke-width="1"/>
  <circle cx="546.7" cy="615.0" r="3" fill="#60a5fa" stroke="#000000" stroke-width="1"/>
  <circle cx="627.8" cy="613.7" r="3" fill="#60a5fa" stroke="#000000" stroke-width="1"/>
  <circle cx="708.9" cy="613.0" r="3" fill="#60a5fa" stroke="#000000" stroke-width="1"/>
  <circle cx="790.0" cy="608.6" r="3" fill="#60a5fa" stroke="#000000" stroke-width="1"/>
  <text x="60.0" y="763" text-anchor="middle" fill="#e5e7eb" font-size="8.5">8 B</text>
  <text x="141.1" y="763" text-anchor="middle" fill="#e5e7eb" font-size="8.5">16 B</text>
  <text x="222.2" y="763" text-anchor="middle" fill="#e5e7eb" font-size="8.5">32 B</text>
  <text x="303.3" y="763" text-anchor="middle" fill="#e5e7eb" font-size="8.5">64 B</text>
  <text x="384.4" y="763" text-anchor="middle" fill="#e5e7eb" font-size="8.5">128 B</text>
  <text x="465.6" y="763" text-anchor="middle" fill="#e5e7eb" font-size="8.5">256 B</text>
  <text x="546.7" y="763" text-anchor="middle" fill="#e5e7eb" font-size="8.5">512 B</text>
  <text x="627.8" y="763" text-anchor="middle" fill="#e5e7eb" font-size="8.5">1 KiB</text>
  <text x="708.9" y="763" text-anchor="middle" fill="#e5e7eb" font-size="8.5">2 KiB</text>
  <text x="790.0" y="763" text-anchor="middle" fill="#e5e7eb" font-size="8.5">4 KiB</text>
  <line x1="155" y1="789" x2="169" y2="789" stroke="#ef4444" stroke-width="2.5"/>
  <circle cx="162" cy="789" r="2.5" fill="#ef4444"/>
  <text x="175" y="793" fill="#e5e7eb" font-size="11" font-weight="500">omq-node sync API</text>
  <line x1="335" y1="789" x2="349" y2="789" stroke="#fb923c" stroke-width="2.5"/>
  <circle cx="342" cy="789" r="2.5" fill="#fb923c"/>
  <text x="355" y="793" fill="#e5e7eb" font-size="11" font-weight="500">omq-node async API</text>
  <line x1="515" y1="789" x2="529" y2="789" stroke="#60a5fa" stroke-width="2.5"/>
  <circle cx="522" cy="789" r="2.5" fill="#60a5fa"/>
  <text x="535" y="793" fill="#e5e7eb" font-size="11" font-weight="500">zeromq.js async API</text>
  <text x="425.0" y="807" text-anchor="middle" fill="#9ca3af" font-size="9">dashed = msg/s (left) · solid = throughput (right)</text>
</svg>
