<svg xmlns="http://www.w3.org/2000/svg" viewBox="0 0 850 824" font-family="system-ui, -apple-system, sans-serif">
  <rect width="850" height="824" fill="#000000"/>
  <text x="425.0" y="44" text-anchor="middle" fill="#f9fafb" font-size="13" font-weight="700">PUSH/PULL throughput: 2-process, TCP loopback (higher is better)</text>
  <text x="425.0" y="58" text-anchor="middle" fill="#9ca3af" font-size="10">Linux VM on a 2018 Mac Mini, 6 cores, performance governor, turbo off</text>
  <line x1="60" y1="410.5" x2="395" y2="410.5" stroke="#374151" stroke-width="1"/>
  <text x="52" y="410.5" text-anchor="end" dominant-baseline="middle" fill="#e5e7eb" font-size="10">200k</text>
  <line x1="60" y1="377.0" x2="395" y2="377.0" stroke="#374151" stroke-width="1"/>
  <text x="52" y="377.0" text-anchor="end" dominant-baseline="middle" fill="#e5e7eb" font-size="10">400k</text>
  <line x1="60" y1="343.5" x2="395" y2="343.5" stroke="#374151" stroke-width="1"/>
  <text x="52" y="343.5" text-anchor="end" dominant-baseline="middle" fill="#e5e7eb" font-size="10">600k</text>
  <line x1="60" y1="310.0" x2="395" y2="310.0" stroke="#374151" stroke-width="1"/>
  <text x="52" y="310.0" text-anchor="end" dominant-baseline="middle" fill="#e5e7eb" font-size="10">800k</text>
  <line x1="60" y1="276.5" x2="395" y2="276.5" stroke="#374151" stroke-width="1"/>
  <text x="52" y="276.5" text-anchor="end" dominant-baseline="middle" fill="#e5e7eb" font-size="10">1M</text>
  <line x1="60" y1="243.0" x2="395" y2="243.0" stroke="#374151" stroke-width="1"/>
  <text x="52" y="243.0" text-anchor="end" dominant-baseline="middle" fill="#e5e7eb" font-size="10">1.2M</text>
  <line x1="60" y1="209.5" x2="395" y2="209.5" stroke="#374151" stroke-width="1"/>
  <text x="52" y="209.5" text-anchor="end" dominant-baseline="middle" fill="#e5e7eb" font-size="10">1.4M</text>
  <line x1="60" y1="176.0" x2="395" y2="176.0" stroke="#374151" stroke-width="1"/>
  <text x="52" y="176.0" text-anchor="end" dominant-baseline="middle" fill="#e5e7eb" font-size="10">1.6M</text>
  <line x1="60" y1="142.5" x2="395" y2="142.5" stroke="#374151" stroke-width="1"/>
  <text x="52" y="142.5" text-anchor="end" dominant-baseline="middle" fill="#e5e7eb" font-size="10">1.8M</text>
  <line x1="60" y1="109.0" x2="395" y2="109.0" stroke="#374151" stroke-width="1"/>
  <text x="52" y="109.0" text-anchor="end" dominant-baseline="middle" fill="#e5e7eb" font-size="10">2M</text>
  <line x1="60.0" y1="109" x2="60.0" y2="444" stroke="#374151" stroke-width="1"/>
  <line x1="115.8" y1="109" x2="115.8" y2="444" stroke="#374151" stroke-width="1"/>
  <line x1="171.7" y1="109" x2="171.7" y2="444" stroke="#374151" stroke-width="1"/>
  <line x1="227.5" y1="109" x2="227.5" y2="444" stroke="#374151" stroke-width="1"/>
  <line x1="283.3" y1="109" x2="283.3" y2="444" stroke="#374151" stroke-width="1"/>
  <line x1="339.2" y1="109" x2="339.2" y2="444" stroke="#374151" stroke-width="1"/>
  <line x1="395.0" y1="109" x2="395.0" y2="444" stroke="#374151" stroke-width="1"/>
  <line x1="60" y1="109" x2="60" y2="444" stroke="#9ca3af" stroke-width="1.5"/>
  <line x1="60" y1="444" x2="395" y2="444" stroke="#9ca3af" stroke-width="1.5"/>
  <line x1="455" y1="402.1" x2="790" y2="402.1" stroke="#374151" stroke-width="1"/>
  <text x="798" y="402.1" text-anchor="start" dominant-baseline="middle" fill="#e5e7eb" font-size="10">0.5 GB/s</text>
  <line x1="455" y1="360.2" x2="790" y2="360.2" stroke="#374151" stroke-width="1"/>
  <text x="798" y="360.2" text-anchor="start" dominant-baseline="middle" fill="#e5e7eb" font-size="10">1 GB/s</text>
  <line x1="455" y1="318.4" x2="790" y2="318.4" stroke="#374151" stroke-width="1"/>
  <text x="798" y="318.4" text-anchor="start" dominant-baseline="middle" fill="#e5e7eb" font-size="10">1.5 GB/s</text>
  <line x1="455" y1="276.5" x2="790" y2="276.5" stroke="#374151" stroke-width="1"/>
  <text x="798" y="276.5" text-anchor="start" dominant-baseline="middle" fill="#e5e7eb" font-size="10">2 GB/s</text>
  <line x1="455" y1="234.6" x2="790" y2="234.6" stroke="#374151" stroke-width="1"/>
  <text x="798" y="234.6" text-anchor="start" dominant-baseline="middle" fill="#e5e7eb" font-size="10">2.5 GB/s</text>
  <line x1="455" y1="192.8" x2="790" y2="192.8" stroke="#374151" stroke-width="1"/>
  <text x="798" y="192.8" text-anchor="start" dominant-baseline="middle" fill="#e5e7eb" font-size="10">3 GB/s</text>
  <line x1="455" y1="150.9" x2="790" y2="150.9" stroke="#374151" stroke-width="1"/>
  <text x="798" y="150.9" text-anchor="start" dominant-baseline="middle" fill="#e5e7eb" font-size="10">3.5 GB/s</text>
  <line x1="455" y1="109.0" x2="790" y2="109.0" stroke="#374151" stroke-width="1"/>
  <text x="798" y="109.0" text-anchor="start" dominant-baseline="middle" fill="#e5e7eb" font-size="10">4 GB/s</text>
  <line x1="455.0" y1="109" x2="455.0" y2="444" stroke="#374151" stroke-width="1"/>
  <line x1="502.9" y1="109" x2="502.9" y2="444" stroke="#374151" stroke-width="1"/>
  <line x1="550.7" y1="109" x2="550.7" y2="444" stroke="#374151" stroke-width="1"/>
  <line x1="598.6" y1="109" x2="598.6" y2="444" stroke="#374151" stroke-width="1"/>
  <line x1="646.4" y1="109" x2="646.4" y2="444" stroke="#374151" stroke-width="1"/>
  <line x1="694.3" y1="109" x2="694.3" y2="444" stroke="#374151" stroke-width="1"/>
  <line x1="742.1" y1="109" x2="742.1" y2="444" stroke="#374151" stroke-width="1"/>
  <line x1="790.0" y1="109" x2="790.0" y2="444" stroke="#374151" stroke-width="1"/>
  <line x1="790" y1="109" x2="790" y2="444" stroke="#9ca3af" stroke-width="1.5"/>
  <line x1="455" y1="444" x2="790" y2="444" stroke="#9ca3af" stroke-width="1.5"/>
  <text x="227.5" y="92" text-anchor="middle" fill="#f9fafb" font-size="12" font-weight="700">small messages</text>
  <text x="622.5" y="92" text-anchor="middle" fill="#f9fafb" font-size="12" font-weight="700">medium/large messages</text>
  <polyline points="60.0,153.4 115.8,156.6 171.7,203.8 227.5,259.5 283.3,261.8 339.2,268.7 395.0,279.3" fill="none" stroke="#ef4444" stroke-width="2" stroke-dasharray="6,4" stroke-linecap="round" stroke-linejoin="round"/>
  <polyline points="60.0,223.1 115.8,218.4 171.7,245.4 227.5,277.1 283.3,279.3 339.2,281.6 395.0,300.0" fill="none" stroke="#fb923c" stroke-width="2" stroke-dasharray="6,4" stroke-linecap="round" stroke-linejoin="round"/>
  <polyline points="60.0,407.0 115.8,406.4 171.7,409.9 227.5,410.4 283.3,411.3 339.2,411.8 395.0,412.1" fill="none" stroke="#60a5fa" stroke-width="2" stroke-dasharray="6,4" stroke-linecap="round" stroke-linejoin="round"/>
  <polyline points="455.0,420.7 502.9,399.1 550.7,359.7 598.6,309.5 646.4,268.4 694.3,202.2 742.1,173.1 790.0,164.5" fill="none" stroke="#ef4444" stroke-width="2.5" stroke-linecap="round" stroke-linejoin="round"/>
  <circle cx="455.0" cy="420.7" r="3" fill="#ef4444" stroke="#000000" stroke-width="1"/>
  <circle cx="502.9" cy="399.1" r="3" fill="#ef4444" stroke="#000000" stroke-width="1"/>
  <circle cx="550.7" cy="359.7" r="3" fill="#ef4444" stroke="#000000" stroke-width="1"/>
  <circle cx="598.6" cy="309.5" r="3" fill="#ef4444" stroke="#000000" stroke-width="1"/>
  <circle cx="646.4" cy="268.4" r="3" fill="#ef4444" stroke="#000000" stroke-width="1"/>
  <circle cx="694.3" cy="202.2" r="3" fill="#ef4444" stroke="#000000" stroke-width="1"/>
  <circle cx="742.1" cy="173.1" r="3" fill="#ef4444" stroke="#000000" stroke-width="1"/>
  <circle cx="790.0" cy="164.5" r="3" fill="#ef4444" stroke="#000000" stroke-width="1"/>
  <polyline points="455.0,422.9 502.9,402.4 550.7,370.3 598.6,313.5 646.4,267.3 694.3,204.4 742.1,175.1 790.0,162.4" fill="none" stroke="#fb923c" stroke-width="2.5" stroke-linecap="round" stroke-linejoin="round"/>
  <circle cx="455.0" cy="422.9" r="3" fill="#fb923c" stroke="#000000" stroke-width="1"/>
  <circle cx="502.9" cy="402.4" r="3" fill="#fb923c" stroke="#000000" stroke-width="1"/>
  <circle cx="550.7" cy="370.3" r="3" fill="#fb923c" stroke="#000000" stroke-width="1"/>
  <circle cx="598.6" cy="313.5" r="3" fill="#fb923c" stroke="#000000" stroke-width="1"/>
  <circle cx="646.4" cy="267.3" r="3" fill="#fb923c" stroke="#000000" stroke-width="1"/>
  <circle cx="694.3" cy="204.4" r="3" fill="#fb923c" stroke="#000000" stroke-width="1"/>
  <circle cx="742.1" cy="175.1" r="3" fill="#fb923c" stroke="#000000" stroke-width="1"/>
  <circle cx="790.0" cy="162.4" r="3" fill="#fb923c" stroke="#000000" stroke-width="1"/>
  <polyline points="455.0,439.8 502.9,435.8 550.7,427.6 598.6,412.3 646.4,387.3 694.3,357.1 742.1,354.4 790.0,292.3" fill="none" stroke="#60a5fa" stroke-width="2.5" stroke-linecap="round" stroke-linejoin="round"/>
  <circle cx="455.0" cy="439.8" r="3" fill="#60a5fa" stroke="#000000" stroke-width="1"/>
  <circle cx="502.9" cy="435.8" r="3" fill="#60a5fa" stroke="#000000" stroke-width="1"/>
  <circle cx="550.7" cy="427.6" r="3" fill="#60a5fa" stroke="#000000" stroke-width="1"/>
  <circle cx="598.6" cy="412.3" r="3" fill="#60a5fa" stroke="#000000" stroke-width="1"/>
  <circle cx="646.4" cy="387.3" r="3" fill="#60a5fa" stroke="#000000" stroke-width="1"/>
  <circle cx="694.3" cy="357.1" r="3" fill="#60a5fa" stroke="#000000" stroke-width="1"/>
  <circle cx="742.1" cy="354.4" r="3" fill="#60a5fa" stroke="#000000" stroke-width="1"/>
  <circle cx="790.0" cy="292.3" r="3" fill="#60a5fa" stroke="#000000" stroke-width="1"/>
  <text x="60.0" y="458" text-anchor="middle" fill="#e5e7eb" font-size="8.5">16 B</text>
  <text x="115.8" y="458" text-anchor="middle" fill="#e5e7eb" font-size="8.5">32 B</text>
  <text x="171.7" y="458" text-anchor="middle" fill="#e5e7eb" font-size="8.5">64 B</text>
  <text x="227.5" y="458" text-anchor="middle" fill="#e5e7eb" font-size="8.5">128 B</text>
  <text x="283.3" y="458" text-anchor="middle" fill="#e5e7eb" font-size="8.5">256 B</text>
  <text x="339.2" y="458" text-anchor="middle" fill="#e5e7eb" font-size="8.5">512 B</text>
  <text x="395.0" y="458" text-anchor="middle" fill="#e5e7eb" font-size="8.5">1 KiB</text>
  <text x="455.0" y="458" text-anchor="middle" fill="#e5e7eb" font-size="8.5">256 B</text>
  <text x="502.9" y="458" text-anchor="middle" fill="#e5e7eb" font-size="8.5">512 B</text>
  <text x="550.7" y="458" text-anchor="middle" fill="#e5e7eb" font-size="8.5">1 KiB</text>
  <text x="598.6" y="458" text-anchor="middle" fill="#e5e7eb" font-size="8.5">2 KiB</text>
  <text x="646.4" y="458" text-anchor="middle" fill="#e5e7eb" font-size="8.5">4 KiB</text>
  <text x="694.3" y="458" text-anchor="middle" fill="#e5e7eb" font-size="8.5">8 KiB</text>
  <text x="742.1" y="458" text-anchor="middle" fill="#e5e7eb" font-size="8.5">16 KiB</text>
  <text x="790.0" y="458" text-anchor="middle" fill="#e5e7eb" font-size="8.5">32 KiB</text>
  <text x="425.0" y="476" text-anchor="middle" fill="#9ca3af" font-size="9">dashed = message rate · solid = bandwidth</text>
  <text x="425.0" y="532" text-anchor="middle" fill="#f9fafb" font-size="13" font-weight="700">REQ/REP latency: 2-process, TCP loopback, p50 μs (lower is better)</text>
  <line x1="60" y1="729.0" x2="790" y2="729.0" stroke="#374151" stroke-width="1"/>
  <text x="52" y="729.0" text-anchor="end" dominant-baseline="middle" fill="#e5e7eb" font-size="10">20 μs</text>
  <line x1="60" y1="709.0" x2="790" y2="709.0" stroke="#374151" stroke-width="1"/>
  <text x="52" y="709.0" text-anchor="end" dominant-baseline="middle" fill="#e5e7eb" font-size="10">40 μs</text>
  <line x1="60" y1="689.0" x2="790" y2="689.0" stroke="#374151" stroke-width="1"/>
  <text x="52" y="689.0" text-anchor="end" dominant-baseline="middle" fill="#e5e7eb" font-size="10">60 μs</text>
  <line x1="60" y1="669.0" x2="790" y2="669.0" stroke="#374151" stroke-width="1"/>
  <text x="52" y="669.0" text-anchor="end" dominant-baseline="middle" fill="#e5e7eb" font-size="10">80 μs</text>
  <line x1="60" y1="649.0" x2="790" y2="649.0" stroke="#374151" stroke-width="1"/>
  <text x="52" y="649.0" text-anchor="end" dominant-baseline="middle" fill="#e5e7eb" font-size="10">100 μs</text>
  <line x1="60" y1="629.0" x2="790" y2="629.0" stroke="#374151" stroke-width="1"/>
  <text x="52" y="629.0" text-anchor="end" dominant-baseline="middle" fill="#e5e7eb" font-size="10">120 μs</text>
  <line x1="60" y1="609.0" x2="790" y2="609.0" stroke="#374151" stroke-width="1"/>
  <text x="52" y="609.0" text-anchor="end" dominant-baseline="middle" fill="#e5e7eb" font-size="10">140 μs</text>
  <line x1="60" y1="589.0" x2="790" y2="589.0" stroke="#374151" stroke-width="1"/>
  <text x="52" y="589.0" text-anchor="end" dominant-baseline="middle" fill="#e5e7eb" font-size="10">160 μs</text>
  <line x1="60" y1="569.0" x2="790" y2="569.0" stroke="#374151" stroke-width="1"/>
  <text x="52" y="569.0" text-anchor="end" dominant-baseline="middle" fill="#e5e7eb" font-size="10">180 μs</text>
  <line x1="60" y1="549.0" x2="790" y2="549.0" stroke="#374151" stroke-width="1"/>
  <text x="52" y="549.0" text-anchor="end" dominant-baseline="middle" fill="#e5e7eb" font-size="10">200 μs</text>
  <line x1="60.0" y1="549" x2="60.0" y2="749" stroke="#374151" stroke-width="1"/>
  <line x1="151.2" y1="549" x2="151.2" y2="749" stroke="#374151" stroke-width="1"/>
  <line x1="242.5" y1="549" x2="242.5" y2="749" stroke="#374151" stroke-width="1"/>
  <line x1="333.8" y1="549" x2="333.8" y2="749" stroke="#374151" stroke-width="1"/>
  <line x1="425.0" y1="549" x2="425.0" y2="749" stroke="#374151" stroke-width="1"/>
  <line x1="516.2" y1="549" x2="516.2" y2="749" stroke="#374151" stroke-width="1"/>
  <line x1="607.5" y1="549" x2="607.5" y2="749" stroke="#374151" stroke-width="1"/>
  <line x1="698.8" y1="549" x2="698.8" y2="749" stroke="#374151" stroke-width="1"/>
  <line x1="790.0" y1="549" x2="790.0" y2="749" stroke="#374151" stroke-width="1"/>
  <line x1="60" y1="549" x2="60" y2="749" stroke="#9ca3af" stroke-width="1.5"/>
  <line x1="60" y1="749" x2="790" y2="749" stroke="#9ca3af" stroke-width="1.5"/>
  <polyline points="60.0,672.1 151.2,671.2 242.5,670.4 333.8,667.5 425.0,668.5 516.2,670.0 607.5,668.8 698.8,667.4 790.0,659.8" fill="none" stroke="#ef4444" stroke-width="2.5" stroke-linecap="round" stroke-linejoin="round"/>
  <circle cx="60.0" cy="672.1" r="3" fill="#ef4444" stroke="#000000" stroke-width="1"/>
  <circle cx="151.2" cy="671.2" r="3" fill="#ef4444" stroke="#000000" stroke-width="1"/>
  <circle cx="242.5" cy="670.4" r="3" fill="#ef4444" stroke="#000000" stroke-width="1"/>
  <circle cx="333.8" cy="667.5" r="3" fill="#ef4444" stroke="#000000" stroke-width="1"/>
  <circle cx="425.0" cy="668.5" r="3" fill="#ef4444" stroke="#000000" stroke-width="1"/>
  <circle cx="516.2" cy="670.0" r="3" fill="#ef4444" stroke="#000000" stroke-width="1"/>
  <circle cx="607.5" cy="668.8" r="3" fill="#ef4444" stroke="#000000" stroke-width="1"/>
  <circle cx="698.8" cy="667.4" r="3" fill="#ef4444" stroke="#000000" stroke-width="1"/>
  <circle cx="790.0" cy="659.8" r="3" fill="#ef4444" stroke="#000000" stroke-width="1"/>
  <polyline points="60.0,631.8 151.2,632.1 242.5,631.9 333.8,628.9 425.0,628.8 516.2,628.3 607.5,630.7 698.8,628.1 790.0,622.4" fill="none" stroke="#fb923c" stroke-width="2.5" stroke-linecap="round" stroke-linejoin="round"/>
  <circle cx="60.0" cy="631.8" r="3" fill="#fb923c" stroke="#000000" stroke-width="1"/>
  <circle cx="151.2" cy="632.1" r="3" fill="#fb923c" stroke="#000000" stroke-width="1"/>
  <circle cx="242.5" cy="631.9" r="3" fill="#fb923c" stroke="#000000" stroke-width="1"/>
  <circle cx="333.8" cy="628.9" r="3" fill="#fb923c" stroke="#000000" stroke-width="1"/>
  <circle cx="425.0" cy="628.8" r="3" fill="#fb923c" stroke="#000000" stroke-width="1"/>
  <circle cx="516.2" cy="628.3" r="3" fill="#fb923c" stroke="#000000" stroke-width="1"/>
  <circle cx="607.5" cy="630.7" r="3" fill="#fb923c" stroke="#000000" stroke-width="1"/>
  <circle cx="698.8" cy="628.1" r="3" fill="#fb923c" stroke="#000000" stroke-width="1"/>
  <circle cx="790.0" cy="622.4" r="3" fill="#fb923c" stroke="#000000" stroke-width="1"/>
  <polyline points="60.0,618.9 151.2,616.9 242.5,620.8 333.8,624.2 425.0,613.8 516.2,615.0 607.5,613.7 698.8,613.0 790.0,608.6" fill="none" stroke="#60a5fa" stroke-width="2.5" stroke-linecap="round" stroke-linejoin="round"/>
  <circle cx="60.0" cy="618.9" r="3" fill="#60a5fa" stroke="#000000" stroke-width="1"/>
  <circle cx="151.2" cy="616.9" r="3" fill="#60a5fa" stroke="#000000" stroke-width="1"/>
  <circle cx="242.5" cy="620.8" r="3" fill="#60a5fa" stroke="#000000" stroke-width="1"/>
  <circle cx="333.8" cy="624.2" r="3" fill="#60a5fa" stroke="#000000" stroke-width="1"/>
  <circle cx="425.0" cy="613.8" r="3" fill="#60a5fa" stroke="#000000" stroke-width="1"/>
  <circle cx="516.2" cy="615.0" r="3" fill="#60a5fa" stroke="#000000" stroke-width="1"/>
  <circle cx="607.5" cy="613.7" r="3" fill="#60a5fa" stroke="#000000" stroke-width="1"/>
  <circle cx="698.8" cy="613.0" r="3" fill="#60a5fa" stroke="#000000" stroke-width="1"/>
  <circle cx="790.0" cy="608.6" r="3" fill="#60a5fa" stroke="#000000" stroke-width="1"/>
  <text x="60.0" y="763" text-anchor="middle" fill="#e5e7eb" font-size="8.5">16 B</text>
  <text x="151.2" y="763" text-anchor="middle" fill="#e5e7eb" font-size="8.5">32 B</text>
  <text x="242.5" y="763" text-anchor="middle" fill="#e5e7eb" font-size="8.5">64 B</text>
  <text x="333.8" y="763" text-anchor="middle" fill="#e5e7eb" font-size="8.5">128 B</text>
  <text x="425.0" y="763" text-anchor="middle" fill="#e5e7eb" font-size="8.5">256 B</text>
  <text x="516.2" y="763" text-anchor="middle" fill="#e5e7eb" font-size="8.5">512 B</text>
  <text x="607.5" y="763" text-anchor="middle" fill="#e5e7eb" font-size="8.5">1 KiB</text>
  <text x="698.8" y="763" text-anchor="middle" fill="#e5e7eb" font-size="8.5">2 KiB</text>
  <text x="790.0" y="763" text-anchor="middle" fill="#e5e7eb" font-size="8.5">4 KiB</text>
  <line x1="155" y1="789" x2="169" y2="789" stroke="#ef4444" stroke-width="2.5"/>
  <circle cx="162" cy="789" r="2.5" fill="#ef4444"/>
  <text x="175" y="793" fill="#e5e7eb" font-size="11" font-weight="500">omq-node sync API</text>
  <line x1="335" y1="789" x2="349" y2="789" stroke="#fb923c" stroke-width="2.5"/>
  <circle cx="342" cy="789" r="2.5" fill="#fb923c"/>
  <text x="355" y="793" fill="#e5e7eb" font-size="11" font-weight="500">omq-node async API</text>
  <line x1="515" y1="789" x2="529" y2="789" stroke="#60a5fa" stroke-width="2.5"/>
  <circle cx="522" cy="789" r="2.5" fill="#60a5fa"/>
  <text x="535" y="793" fill="#e5e7eb" font-size="11" font-weight="500">zeromq.js async API</text>
  <text x="425.0" y="807" text-anchor="middle" fill="#9ca3af" font-size="9">dashed = msg/s (left) · solid = throughput (right)</text>
</svg>
