<svg xmlns="http://www.w3.org/2000/svg" viewBox="0 0 875 572" font-family="system-ui, -apple-system, sans-serif">
  <rect width="875" height="572" fill="white"/>
  <text x="395.0" y="32.0" text-anchor="middle" fill="#111827" font-size="13" font-weight="700">PUSH/PULL throughput: TCP loopback, 2-process</text>
  <line x1="90.0" y1="341.0" x2="700.0" y2="341.0" stroke="#e5e7eb" stroke-width="1"/>
  <text x="82.0" y="341.0" text-anchor="end" dominant-baseline="middle" fill="#374151" font-size="10">100%</text>
  <line x1="90.0" y1="268.0" x2="700.0" y2="268.0" stroke="#e5e7eb" stroke-width="1"/>
  <text x="82.0" y="268.0" text-anchor="end" dominant-baseline="middle" fill="#374151" font-size="10">200%</text>
  <line x1="90.0" y1="195.0" x2="700.0" y2="195.0" stroke="#e5e7eb" stroke-width="1"/>
  <text x="82.0" y="195.0" text-anchor="end" dominant-baseline="middle" fill="#374151" font-size="10">300%</text>
  <line x1="90.0" y1="122.0" x2="700.0" y2="122.0" stroke="#e5e7eb" stroke-width="1"/>
  <text x="82.0" y="122.0" text-anchor="end" dominant-baseline="middle" fill="#374151" font-size="10">400%</text>
  <line x1="90.0" y1="49.0" x2="700.0" y2="49.0" stroke="#e5e7eb" stroke-width="1"/>
  <text x="82.0" y="49.0" text-anchor="end" dominant-baseline="middle" fill="#374151" font-size="10">500%</text>
  <line x1="90.0" y1="353.2" x2="700.0" y2="353.2" stroke="#e5e7eb" stroke-width="1" stroke-dasharray="3,6"/>
  <text x="708.0" y="353.2" text-anchor="start" dominant-baseline="middle" fill="#6b7280" font-size="10">1 GB/s</text>
  <line x1="90.0" y1="292.3" x2="700.0" y2="292.3" stroke="#e5e7eb" stroke-width="1" stroke-dasharray="3,6"/>
  <text x="708.0" y="292.3" text-anchor="start" dominant-baseline="middle" fill="#6b7280" font-size="10">2 GB/s</text>
  <line x1="90.0" y1="231.5" x2="700.0" y2="231.5" stroke="#e5e7eb" stroke-width="1" stroke-dasharray="3,6"/>
  <text x="708.0" y="231.5" text-anchor="start" dominant-baseline="middle" fill="#6b7280" font-size="10">3 GB/s</text>
  <line x1="90.0" y1="170.7" x2="700.0" y2="170.7" stroke="#e5e7eb" stroke-width="1" stroke-dasharray="3,6"/>
  <text x="708.0" y="170.7" text-anchor="start" dominant-baseline="middle" fill="#6b7280" font-size="10">4 GB/s</text>
  <line x1="90.0" y1="109.8" x2="700.0" y2="109.8" stroke="#e5e7eb" stroke-width="1" stroke-dasharray="3,6"/>
  <text x="708.0" y="109.8" text-anchor="start" dominant-baseline="middle" fill="#6b7280" font-size="10">5 GB/s</text>
  <line x1="90.0" y1="49.0" x2="700.0" y2="49.0" stroke="#e5e7eb" stroke-width="1" stroke-dasharray="3,6"/>
  <text x="708.0" y="49.0" text-anchor="start" dominant-baseline="middle" fill="#6b7280" font-size="10">6 GB/s</text>
  <text x="788.0" y="339.0" text-anchor="start" dominant-baseline="middle" fill="#9ca3af" font-size="10">2M/s</text>
  <text x="788.0" y="263.9" text-anchor="start" dominant-baseline="middle" fill="#9ca3af" font-size="10">4M/s</text>
  <text x="788.0" y="188.9" text-anchor="start" dominant-baseline="middle" fill="#9ca3af" font-size="10">6M/s</text>
  <text x="788.0" y="113.8" text-anchor="start" dominant-baseline="middle" fill="#9ca3af" font-size="10">8M/s</text>
  <line x1="90.0" y1="49.0" x2="90.0" y2="414.0" stroke="#e5e7eb" stroke-width="1"/>
  <line x1="140.8" y1="49.0" x2="140.8" y2="414.0" stroke="#e5e7eb" stroke-width="1"/>
  <line x1="191.7" y1="49.0" x2="191.7" y2="414.0" stroke="#e5e7eb" stroke-width="1"/>
  <line x1="242.5" y1="49.0" x2="242.5" y2="414.0" stroke="#e5e7eb" stroke-width="1"/>
  <line x1="293.3" y1="49.0" x2="293.3" y2="414.0" stroke="#e5e7eb" stroke-width="1"/>
  <line x1="344.2" y1="49.0" x2="344.2" y2="414.0" stroke="#e5e7eb" stroke-width="1"/>
  <line x1="395.0" y1="49.0" x2="395.0" y2="414.0" stroke="#e5e7eb" stroke-width="1"/>
  <line x1="445.8" y1="49.0" x2="445.8" y2="414.0" stroke="#e5e7eb" stroke-width="1"/>
  <line x1="496.7" y1="49.0" x2="496.7" y2="414.0" stroke="#e5e7eb" stroke-width="1"/>
  <line x1="547.5" y1="49.0" x2="547.5" y2="414.0" stroke="#e5e7eb" stroke-width="1"/>
  <line x1="598.3" y1="49.0" x2="598.3" y2="414.0" stroke="#e5e7eb" stroke-width="1"/>
  <line x1="649.2" y1="49.0" x2="649.2" y2="414.0" stroke="#e5e7eb" stroke-width="1"/>
  <line x1="700.0" y1="49.0" x2="700.0" y2="414.0" stroke="#e5e7eb" stroke-width="1"/>
  <line x1="90.0" y1="49.0" x2="90.0" y2="414.0" stroke="#9ca3af" stroke-width="1.5"/>
  <line x1="700.0" y1="49.0" x2="700.0" y2="414.0" stroke="#9ca3af" stroke-width="1.5"/>
  <line x1="90.0" y1="414.0" x2="700.0" y2="414.0" stroke="#9ca3af" stroke-width="1.5"/>
  <line x1="780.0" y1="49.0" x2="780.0" y2="414.0" stroke="#d1d5db" stroke-width="1"/>
  <text x="40.0" y="231.5" text-anchor="middle" fill="#374151" font-size="10" font-weight="600" transform="rotate(-90,40.0,231.5)">CPU %</text>
  <polyline points="90.0,294.4 140.8,293.4 191.7,293.4 242.5,292.7 293.3,293.3 344.2,292.0 395.0,286.3 445.8,291.6 496.7,290.0 547.5,289.3 598.3,287.6 649.2,300.6 700.0,315.2" fill="none" stroke="#0d9488" stroke-width="2" stroke-dasharray="2,3"/>
  <polyline points="90.0,305.0 140.8,304.6 191.7,302.3 242.5,302.3 293.3,300.1 344.2,284.5 395.0,268.9 445.8,271.5 496.7,277.4 547.5,278.6 598.3,284.0 649.2,276.7 700.0,281.8" fill="none" stroke="#db2777" stroke-width="2" stroke-dasharray="2,3"/>
  <polyline points="90.0,134.7 140.8,111.0 191.7,123.5 242.5,107.4 293.3,175.7 344.2,164.3 395.0,169.0 445.8,174.1 496.7,195.4 547.5,200.8 598.3,198.2 649.2,206.9 700.0,198.0" fill="none" stroke="#eab308" stroke-width="2" stroke-dasharray="2,3"/>
  <polyline points="90.0,292.5 140.8,289.4 191.7,291.8 242.5,298.0 293.3,293.6 344.2,297.5 395.0,285.6 445.8,276.6 496.7,269.1 547.5,288.6 598.3,295.2 649.2,296.5 700.0,295.1" fill="none" stroke="#f97316" stroke-width="2" stroke-dasharray="2,3"/>
  <polyline points="90.0,346.5 140.8,346.8 191.7,330.8 242.5,355.6 293.3,355.3 344.2,353.4 395.0,357.4 445.8,353.8 496.7,346.9 547.5,332.6 598.3,331.9 649.2,334.8 700.0,332.2" fill="none" stroke="#16a34a" stroke-width="2" stroke-dasharray="2,3"/>
  <polyline points="90.0,327.5 140.8,329.4 191.7,334.8 242.5,338.5 293.3,339.6 344.2,340.7 395.0,340.7 445.8,341.0 496.7,341.0 547.5,341.0 598.3,341.0 649.2,350.2 700.0,360.0" fill="none" stroke="#2563eb" stroke-width="2" stroke-dasharray="2,3"/>
  <polyline points="90.0,408.9 140.8,408.9 191.7,408.9 242.5,408.8 293.3,408.9 344.2,408.9 395.0,408.9 445.8,409.3 496.7,409.4 547.5,409.7 598.3,410.0 649.2,410.7 700.0,412.5" fill="none" stroke="#0d9488" stroke-width="1.5" stroke-dasharray="5,3"/>
  <polyline points="90.0,96.6 140.8,105.3 191.7,121.8 242.5,147.8 293.3,187.0 344.2,185.9 395.0,243.7 445.8,316.7 496.7,363.1 547.5,388.3 598.3,401.3 649.2,407.2 700.0,410.8" fill="none" stroke="#db2777" stroke-width="1.5" stroke-dasharray="5,3"/>
  <polyline points="90.0,164.6 140.8,147.4 191.7,155.9 242.5,243.6 293.3,329.1 344.2,336.1 395.0,356.9 445.8,380.9 496.7,395.0 547.5,403.4 598.3,408.7 649.2,411.3 700.0,411.8" fill="none" stroke="#eab308" stroke-width="1.5" stroke-dasharray="5,3"/>
  <polyline points="90.0,243.5 140.8,243.5 191.7,245.6 242.5,278.7 293.3,281.6 344.2,312.1 395.0,312.6 445.8,329.1 496.7,363.9 547.5,386.1 598.3,396.4 649.2,405.2 700.0,409.4" fill="none" stroke="#f97316" stroke-width="1.5" stroke-dasharray="5,3"/>
  <polyline points="90.0,321.5 140.8,320.3 191.7,321.0 242.5,322.2 293.3,324.9 344.2,330.6 395.0,338.4 445.8,350.1 496.7,366.2 547.5,381.3 598.3,397.5 649.2,405.7 700.0,409.3" fill="none" stroke="#16a34a" stroke-width="1.5" stroke-dasharray="5,3"/>
  <polyline points="90.0,398.6 140.8,399.5 191.7,402.0 242.5,403.5 293.3,404.1 344.2,404.7 395.0,405.0 445.8,405.4 496.7,406.2 547.5,406.8 598.3,407.5 649.2,407.3 700.0,410.3" fill="none" stroke="#2563eb" stroke-width="1.5" stroke-dasharray="5,3"/>
  <polyline points="90.0,413.9 140.8,413.9 191.7,413.7 242.5,413.5 293.3,413.0 344.2,411.9 395.0,409.8 445.8,406.2 496.7,398.8 547.5,385.6 598.3,361.0 649.2,327.0 700.0,333.3" fill="none" stroke="#0d9488" stroke-width="2.5" stroke-linecap="round" stroke-linejoin="round"/>
  <circle cx="90.0" cy="413.9" r="3" fill="#0d9488" stroke="white" stroke-width="1"/>
  <circle cx="140.8" cy="413.9" r="3" fill="#0d9488" stroke="white" stroke-width="1"/>
  <circle cx="191.7" cy="413.7" r="3" fill="#0d9488" stroke="white" stroke-width="1"/>
  <circle cx="242.5" cy="413.5" r="3" fill="#0d9488" stroke="white" stroke-width="1"/>
  <circle cx="293.3" cy="413.0" r="3" fill="#0d9488" stroke="white" stroke-width="1"/>
  <circle cx="344.2" cy="411.9" r="3" fill="#0d9488" stroke="white" stroke-width="1"/>
  <circle cx="395.0" cy="409.8" r="3" fill="#0d9488" stroke="white" stroke-width="1"/>
  <circle cx="445.8" cy="406.2" r="3" fill="#0d9488" stroke="white" stroke-width="1"/>
  <circle cx="496.7" cy="398.8" r="3" fill="#0d9488" stroke="white" stroke-width="1"/>
  <circle cx="547.5" cy="385.6" r="3" fill="#0d9488" stroke="white" stroke-width="1"/>
  <circle cx="598.3" cy="361.0" r="3" fill="#0d9488" stroke="white" stroke-width="1"/>
  <circle cx="649.2" cy="327.0" r="3" fill="#0d9488" stroke="white" stroke-width="1"/>
  <circle cx="700.0" cy="333.3" r="3" fill="#0d9488" stroke="white" stroke-width="1"/>
  <polyline points="90.0,409.9 140.8,406.0 191.7,398.8 242.5,386.4 293.3,366.9 344.2,319.3 395.0,272.6 445.8,252.4 496.7,245.0 547.5,243.1 598.3,244.8 649.2,233.8 700.0,244.3" fill="none" stroke="#db2777" stroke-width="2.5" stroke-linecap="round" stroke-linejoin="round"/>
  <circle cx="90.0" cy="409.9" r="3" fill="#db2777" stroke="white" stroke-width="1"/>
  <circle cx="140.8" cy="406.0" r="3" fill="#db2777" stroke="white" stroke-width="1"/>
  <circle cx="191.7" cy="398.8" r="3" fill="#db2777" stroke="white" stroke-width="1"/>
  <circle cx="242.5" cy="386.4" r="3" fill="#db2777" stroke="white" stroke-width="1"/>
  <circle cx="293.3" cy="366.9" r="3" fill="#db2777" stroke="white" stroke-width="1"/>
  <circle cx="344.2" cy="319.3" r="3" fill="#db2777" stroke="white" stroke-width="1"/>
  <circle cx="395.0" cy="272.6" r="3" fill="#db2777" stroke="white" stroke-width="1"/>
  <circle cx="445.8" cy="252.4" r="3" fill="#db2777" stroke="white" stroke-width="1"/>
  <circle cx="496.7" cy="245.0" r="3" fill="#db2777" stroke="white" stroke-width="1"/>
  <circle cx="547.5" cy="243.1" r="3" fill="#db2777" stroke="white" stroke-width="1"/>
  <circle cx="598.3" cy="244.8" r="3" fill="#db2777" stroke="white" stroke-width="1"/>
  <circle cx="649.2" cy="233.8" r="3" fill="#db2777" stroke="white" stroke-width="1"/>
  <circle cx="700.0" cy="244.3" r="3" fill="#db2777" stroke="white" stroke-width="1"/>
  <polyline points="90.0,410.8 140.8,407.1 191.7,400.6 242.5,396.3 293.3,396.4 344.2,381.7 395.0,366.6 445.8,359.1 496.7,350.9 547.5,343.4 598.3,343.1 649.2,342.3 700.0,297.8" fill="none" stroke="#eab308" stroke-width="2.5" stroke-linecap="round" stroke-linejoin="round"/>
  <circle cx="90.0" cy="410.8" r="3" fill="#eab308" stroke="white" stroke-width="1"/>
  <circle cx="140.8" cy="407.1" r="3" fill="#eab308" stroke="white" stroke-width="1"/>
  <circle cx="191.7" cy="400.6" r="3" fill="#eab308" stroke="white" stroke-width="1"/>
  <circle cx="242.5" cy="396.3" r="3" fill="#eab308" stroke="white" stroke-width="1"/>
  <circle cx="293.3" cy="396.4" r="3" fill="#eab308" stroke="white" stroke-width="1"/>
  <circle cx="344.2" cy="381.7" r="3" fill="#eab308" stroke="white" stroke-width="1"/>
  <circle cx="395.0" cy="366.6" r="3" fill="#eab308" stroke="white" stroke-width="1"/>
  <circle cx="445.8" cy="359.1" r="3" fill="#eab308" stroke="white" stroke-width="1"/>
  <circle cx="496.7" cy="350.9" r="3" fill="#eab308" stroke="white" stroke-width="1"/>
  <circle cx="547.5" cy="343.4" r="3" fill="#eab308" stroke="white" stroke-width="1"/>
  <circle cx="598.3" cy="343.1" r="3" fill="#eab308" stroke="white" stroke-width="1"/>
  <circle cx="649.2" cy="342.3" r="3" fill="#eab308" stroke="white" stroke-width="1"/>
  <circle cx="700.0" cy="297.8" r="3" fill="#eab308" stroke="white" stroke-width="1"/>
  <polyline points="90.0,411.8 140.8,409.6 191.7,405.3 242.5,400.0 293.3,386.5 344.2,371.7 395.0,329.9 445.8,273.1 496.7,247.5 547.5,228.9 598.3,180.2 649.2,179.4 700.0,168.5" fill="none" stroke="#f97316" stroke-width="2.5" stroke-linecap="round" stroke-linejoin="round"/>
  <circle cx="90.0" cy="411.8" r="3" fill="#f97316" stroke="white" stroke-width="1"/>
  <circle cx="140.8" cy="409.6" r="3" fill="#f97316" stroke="white" stroke-width="1"/>
  <circle cx="191.7" cy="405.3" r="3" fill="#f97316" stroke="white" stroke-width="1"/>
  <circle cx="242.5" cy="400.0" r="3" fill="#f97316" stroke="white" stroke-width="1"/>
  <circle cx="293.3" cy="386.5" r="3" fill="#f97316" stroke="white" stroke-width="1"/>
  <circle cx="344.2" cy="371.7" r="3" fill="#f97316" stroke="white" stroke-width="1"/>
  <circle cx="395.0" cy="329.9" r="3" fill="#f97316" stroke="white" stroke-width="1"/>
  <circle cx="445.8" cy="273.1" r="3" fill="#f97316" stroke="white" stroke-width="1"/>
  <circle cx="496.7" cy="247.5" r="3" fill="#f97316" stroke="white" stroke-width="1"/>
  <circle cx="547.5" cy="228.9" r="3" fill="#f97316" stroke="white" stroke-width="1"/>
  <circle cx="598.3" cy="180.2" r="3" fill="#f97316" stroke="white" stroke-width="1"/>
  <circle cx="649.2" cy="179.4" r="3" fill="#f97316" stroke="white" stroke-width="1"/>
  <circle cx="700.0" cy="168.5" r="3" fill="#f97316" stroke="white" stroke-width="1"/>
  <polyline points="90.0,412.8 140.8,411.6 191.7,409.2 242.5,404.5 293.3,395.5 344.2,379.4 395.0,351.2 445.8,308.0 496.7,255.1 547.5,197.1 598.3,194.6 649.2,193.3 700.0,166.2" fill="none" stroke="#16a34a" stroke-width="2.5" stroke-linecap="round" stroke-linejoin="round"/>
  <circle cx="90.0" cy="412.8" r="3" fill="#16a34a" stroke="white" stroke-width="1"/>
  <circle cx="140.8" cy="411.6" r="3" fill="#16a34a" stroke="white" stroke-width="1"/>
  <circle cx="191.7" cy="409.2" r="3" fill="#16a34a" stroke="white" stroke-width="1"/>
  <circle cx="242.5" cy="404.5" r="3" fill="#16a34a" stroke="white" stroke-width="1"/>
  <circle cx="293.3" cy="395.5" r="3" fill="#16a34a" stroke="white" stroke-width="1"/>
  <circle cx="344.2" cy="379.4" r="3" fill="#16a34a" stroke="white" stroke-width="1"/>
  <circle cx="395.0" cy="351.2" r="3" fill="#16a34a" stroke="white" stroke-width="1"/>
  <circle cx="445.8" cy="308.0" r="3" fill="#16a34a" stroke="white" stroke-width="1"/>
  <circle cx="496.7" cy="255.1" r="3" fill="#16a34a" stroke="white" stroke-width="1"/>
  <circle cx="547.5" cy="197.1" r="3" fill="#16a34a" stroke="white" stroke-width="1"/>
  <circle cx="598.3" cy="194.6" r="3" fill="#16a34a" stroke="white" stroke-width="1"/>
  <circle cx="649.2" cy="193.3" r="3" fill="#16a34a" stroke="white" stroke-width="1"/>
  <circle cx="700.0" cy="166.2" r="3" fill="#16a34a" stroke="white" stroke-width="1"/>
  <polyline points="90.0,413.8 140.8,413.6 191.7,413.4 242.5,412.9 293.3,411.9 344.2,410.1 395.0,406.5 445.8,399.7 496.7,388.0 547.5,366.0 598.3,328.2 649.2,236.7 700.0,215.0" fill="none" stroke="#2563eb" stroke-width="2.5" stroke-linecap="round" stroke-linejoin="round"/>
  <circle cx="90.0" cy="413.8" r="3" fill="#2563eb" stroke="white" stroke-width="1"/>
  <circle cx="140.8" cy="413.6" r="3" fill="#2563eb" stroke="white" stroke-width="1"/>
  <circle cx="191.7" cy="413.4" r="3" fill="#2563eb" stroke="white" stroke-width="1"/>
  <circle cx="242.5" cy="412.9" r="3" fill="#2563eb" stroke="white" stroke-width="1"/>
  <circle cx="293.3" cy="411.9" r="3" fill="#2563eb" stroke="white" stroke-width="1"/>
  <circle cx="344.2" cy="410.1" r="3" fill="#2563eb" stroke="white" stroke-width="1"/>
  <circle cx="395.0" cy="406.5" r="3" fill="#2563eb" stroke="white" stroke-width="1"/>
  <circle cx="445.8" cy="399.7" r="3" fill="#2563eb" stroke="white" stroke-width="1"/>
  <circle cx="496.7" cy="388.0" r="3" fill="#2563eb" stroke="white" stroke-width="1"/>
  <circle cx="547.5" cy="366.0" r="3" fill="#2563eb" stroke="white" stroke-width="1"/>
  <circle cx="598.3" cy="328.2" r="3" fill="#2563eb" stroke="white" stroke-width="1"/>
  <circle cx="649.2" cy="236.7" r="3" fill="#2563eb" stroke="white" stroke-width="1"/>
  <circle cx="700.0" cy="215.0" r="3" fill="#2563eb" stroke="white" stroke-width="1"/>
  <text x="90.0" y="428.0" text-anchor="middle" fill="#374151" font-size="8.5">8 B</text>
  <text x="140.8" y="428.0" text-anchor="middle" fill="#374151" font-size="8.5">16 B</text>
  <text x="191.7" y="428.0" text-anchor="middle" fill="#374151" font-size="8.5">32 B</text>
  <text x="242.5" y="428.0" text-anchor="middle" fill="#374151" font-size="8.5">64 B</text>
  <text x="293.3" y="428.0" text-anchor="middle" fill="#374151" font-size="8.5">128 B</text>
  <text x="344.2" y="428.0" text-anchor="middle" fill="#374151" font-size="8.5">256 B</text>
  <text x="395.0" y="428.0" text-anchor="middle" fill="#374151" font-size="8.5">512 B</text>
  <text x="445.8" y="428.0" text-anchor="middle" fill="#374151" font-size="8.5">1 KiB</text>
  <text x="496.7" y="428.0" text-anchor="middle" fill="#374151" font-size="8.5">2 KiB</text>
  <text x="547.5" y="428.0" text-anchor="middle" fill="#374151" font-size="8.5">4 KiB</text>
  <text x="598.3" y="428.0" text-anchor="middle" fill="#374151" font-size="8.5">8 KiB</text>
  <text x="649.2" y="428.0" text-anchor="middle" fill="#374151" font-size="8.5">16 KiB</text>
  <text x="700.0" y="428.0" text-anchor="middle" fill="#374151" font-size="8.5">32 KiB</text>
  <text x="395.0" y="46" text-anchor="middle" fill="#9ca3af" font-size="10">Linux VM on a 2018 Mac Mini, Intel Core i7-8700B @ 3.20GHz, 6 cores, performance governor, turbo off</text>
  <line x1="178" y1="454" x2="192" y2="454" stroke="#eab308" stroke-width="2.5"/>
  <circle cx="184" cy="454" r="2.5" fill="#eab308"/>
  <text x="198" y="458" fill="#374151" font-size="11" font-weight="500">libzmq v4.3.5</text>
  <line x1="322" y1="454" x2="336" y2="454" stroke="#f97316" stroke-width="2.5"/>
  <circle cx="330" cy="454" r="2.5" fill="#f97316"/>
  <text x="342" y="458" fill="#374151" font-size="11" font-weight="500">omq-tokio (ST)</text>
  <line x1="468" y1="454" x2="482" y2="454" stroke="#2563eb" stroke-width="2.5"/>
  <circle cx="474" cy="454" r="2.5" fill="#2563eb"/>
  <text x="488" y="458" fill="#374151" font-size="11" font-weight="500">zmq.rs v0.6.0 (MT)</text>
  <line x1="178" y1="474" x2="192" y2="474" stroke="#16a34a" stroke-width="2.5"/>
  <circle cx="184" cy="474" r="2.5" fill="#16a34a"/>
  <text x="198" y="478" fill="#374151" font-size="11" font-weight="500">rzmq v0.5.18 (MT)</text>
  <line x1="322" y1="474" x2="336" y2="474" stroke="#db2777" stroke-width="2.5"/>
  <circle cx="330" cy="474" r="2.5" fill="#db2777"/>
  <text x="342" y="478" fill="#374151" font-size="11" font-weight="500">monocoque v0.1.4 (ST)</text>
  <line x1="468" y1="474" x2="482" y2="474" stroke="#0d9488" stroke-width="2.5"/>
  <circle cx="474" cy="474" r="2.5" fill="#0d9488"/>
  <text x="488" y="478" fill="#374151" font-size="11" font-weight="500">celerity v0.1.1 (ST)</text>
  <text x="395.0" y="492" text-anchor="middle" fill="#9ca3af" font-size="9">ST = single-threaded   MT = multi-threaded</text>
  <line x1="145" y1="514" x2="159" y2="514" stroke="#6b7280" stroke-width="2" stroke-dasharray="2,3" opacity="0.7"/>
  <text x="165" y="518" fill="#6b7280" font-size="10">CPU % (left)</text>
  <line x1="290" y1="514" x2="304" y2="514" stroke="#6b7280" stroke-width="2.5"/>
  <circle cx="297" cy="514" r="2" fill="#6b7280"/>
  <text x="310" y="518" fill="#6b7280" font-size="10">GB/s (inner right)</text>
  <line x1="455" y1="514" x2="469" y2="514" stroke="#6b7280" stroke-width="1.5" stroke-dasharray="5,3"/>
  <text x="475" y="518" fill="#6b7280" font-size="10">msg/s (outer right)</text>
</svg>
