<svg xmlns="http://www.w3.org/2000/svg" viewBox="0 0 875 552" font-family="system-ui, -apple-system, sans-serif">
  <rect width="875" height="552" fill="white"/>
  <text x="395.0" y="32.0" text-anchor="middle" fill="#111827" font-size="13" font-weight="700">PUSH/PULL throughput: IPC, 2-process</text>
  <line x1="90.0" y1="341.0" x2="700.0" y2="341.0" stroke="#e5e7eb" stroke-width="1"/>
  <text x="82.0" y="341.0" text-anchor="end" dominant-baseline="middle" fill="#374151" font-size="10">100%</text>
  <line x1="90.0" y1="268.0" x2="700.0" y2="268.0" stroke="#e5e7eb" stroke-width="1"/>
  <text x="82.0" y="268.0" text-anchor="end" dominant-baseline="middle" fill="#374151" font-size="10">200%</text>
  <line x1="90.0" y1="195.0" x2="700.0" y2="195.0" stroke="#e5e7eb" stroke-width="1"/>
  <text x="82.0" y="195.0" text-anchor="end" dominant-baseline="middle" fill="#374151" font-size="10">300%</text>
  <line x1="90.0" y1="122.0" x2="700.0" y2="122.0" stroke="#e5e7eb" stroke-width="1"/>
  <text x="82.0" y="122.0" text-anchor="end" dominant-baseline="middle" fill="#374151" font-size="10">400%</text>
  <line x1="90.0" y1="49.0" x2="700.0" y2="49.0" stroke="#e5e7eb" stroke-width="1"/>
  <text x="82.0" y="49.0" text-anchor="end" dominant-baseline="middle" fill="#374151" font-size="10">500%</text>
  <line x1="90.0" y1="353.2" x2="700.0" y2="353.2" stroke="#e5e7eb" stroke-width="1" stroke-dasharray="3,6"/>
  <text x="708.0" y="353.2" text-anchor="start" dominant-baseline="middle" fill="#6b7280" font-size="10">1 GB/s</text>
  <line x1="90.0" y1="292.3" x2="700.0" y2="292.3" stroke="#e5e7eb" stroke-width="1" stroke-dasharray="3,6"/>
  <text x="708.0" y="292.3" text-anchor="start" dominant-baseline="middle" fill="#6b7280" font-size="10">2 GB/s</text>
  <line x1="90.0" y1="231.5" x2="700.0" y2="231.5" stroke="#e5e7eb" stroke-width="1" stroke-dasharray="3,6"/>
  <text x="708.0" y="231.5" text-anchor="start" dominant-baseline="middle" fill="#6b7280" font-size="10">3 GB/s</text>
  <line x1="90.0" y1="170.7" x2="700.0" y2="170.7" stroke="#e5e7eb" stroke-width="1" stroke-dasharray="3,6"/>
  <text x="708.0" y="170.7" text-anchor="start" dominant-baseline="middle" fill="#6b7280" font-size="10">4 GB/s</text>
  <line x1="90.0" y1="109.8" x2="700.0" y2="109.8" stroke="#e5e7eb" stroke-width="1" stroke-dasharray="3,6"/>
  <text x="708.0" y="109.8" text-anchor="start" dominant-baseline="middle" fill="#6b7280" font-size="10">5 GB/s</text>
  <line x1="90.0" y1="49.0" x2="700.0" y2="49.0" stroke="#e5e7eb" stroke-width="1" stroke-dasharray="3,6"/>
  <text x="708.0" y="49.0" text-anchor="start" dominant-baseline="middle" fill="#6b7280" font-size="10">6 GB/s</text>
  <text x="788.0" y="370.9" text-anchor="start" dominant-baseline="middle" fill="#9ca3af" font-size="10">1M/s</text>
  <text x="788.0" y="327.8" text-anchor="start" dominant-baseline="middle" fill="#9ca3af" font-size="10">2M/s</text>
  <text x="788.0" y="284.6" text-anchor="start" dominant-baseline="middle" fill="#9ca3af" font-size="10">3M/s</text>
  <text x="788.0" y="241.5" text-anchor="start" dominant-baseline="middle" fill="#9ca3af" font-size="10">4M/s</text>
  <text x="788.0" y="198.4" text-anchor="start" dominant-baseline="middle" fill="#9ca3af" font-size="10">5M/s</text>
  <text x="788.0" y="155.3" text-anchor="start" dominant-baseline="middle" fill="#9ca3af" font-size="10">6M/s</text>
  <text x="788.0" y="112.2" text-anchor="start" dominant-baseline="middle" fill="#9ca3af" font-size="10">7M/s</text>
  <text x="788.0" y="69.0" text-anchor="start" dominant-baseline="middle" fill="#9ca3af" font-size="10">8M/s</text>
  <line x1="90.0" y1="49.0" x2="90.0" y2="414.0" stroke="#e5e7eb" stroke-width="1"/>
  <line x1="140.8" y1="49.0" x2="140.8" y2="414.0" stroke="#e5e7eb" stroke-width="1"/>
  <line x1="191.7" y1="49.0" x2="191.7" y2="414.0" stroke="#e5e7eb" stroke-width="1"/>
  <line x1="242.5" y1="49.0" x2="242.5" y2="414.0" stroke="#e5e7eb" stroke-width="1"/>
  <line x1="293.3" y1="49.0" x2="293.3" y2="414.0" stroke="#e5e7eb" stroke-width="1"/>
  <line x1="344.2" y1="49.0" x2="344.2" y2="414.0" stroke="#e5e7eb" stroke-width="1"/>
  <line x1="395.0" y1="49.0" x2="395.0" y2="414.0" stroke="#e5e7eb" stroke-width="1"/>
  <line x1="445.8" y1="49.0" x2="445.8" y2="414.0" stroke="#e5e7eb" stroke-width="1"/>
  <line x1="496.7" y1="49.0" x2="496.7" y2="414.0" stroke="#e5e7eb" stroke-width="1"/>
  <line x1="547.5" y1="49.0" x2="547.5" y2="414.0" stroke="#e5e7eb" stroke-width="1"/>
  <line x1="598.3" y1="49.0" x2="598.3" y2="414.0" stroke="#e5e7eb" stroke-width="1"/>
  <line x1="649.2" y1="49.0" x2="649.2" y2="414.0" stroke="#e5e7eb" stroke-width="1"/>
  <line x1="700.0" y1="49.0" x2="700.0" y2="414.0" stroke="#e5e7eb" stroke-width="1"/>
  <line x1="90.0" y1="49.0" x2="90.0" y2="414.0" stroke="#9ca3af" stroke-width="1.5"/>
  <line x1="700.0" y1="49.0" x2="700.0" y2="414.0" stroke="#9ca3af" stroke-width="1.5"/>
  <line x1="90.0" y1="414.0" x2="700.0" y2="414.0" stroke="#9ca3af" stroke-width="1.5"/>
  <line x1="780.0" y1="49.0" x2="780.0" y2="414.0" stroke="#d1d5db" stroke-width="1"/>
  <text x="40.0" y="231.5" text-anchor="middle" fill="#374151" font-size="10" font-weight="600" transform="rotate(-90,40.0,231.5)">CPU %</text>
  <polyline points="90.0,146.1 140.8,129.4 191.7,132.2 242.5,110.0 293.3,163.4 344.2,146.6 395.0,151.3 445.8,171.8 496.7,188.5 547.5,189.9 598.3,182.3 649.2,182.3 700.0,192.6" fill="none" stroke="#eab308" stroke-width="2" stroke-dasharray="2,3"/>
  <polyline points="90.0,333.8 140.8,334.0 191.7,333.1 242.5,332.5 293.3,331.9 344.2,325.5 395.0,322.0 445.8,310.0 496.7,295.7 547.5,297.8 598.3,293.1 649.2,295.1 700.0,295.2" fill="none" stroke="#f97316" stroke-width="2" stroke-dasharray="2,3"/>
  <polyline points="90.0,351.2 140.8,347.6 191.7,349.8 242.5,354.2 293.3,352.7 344.2,348.7 395.0,353.4 445.8,347.0 496.7,345.7 547.5,348.0 598.3,341.8 649.2,348.3 700.0,334.1" fill="none" stroke="#16a34a" stroke-width="2" stroke-dasharray="2,3"/>
  <polyline points="90.0,301.6 140.8,300.9 191.7,302.0 242.5,299.8 293.3,300.1 344.2,299.8 395.0,302.7 445.8,299.8 496.7,296.8 547.5,322.1 598.3,320.2 649.2,344.3 700.0,352.0" fill="none" stroke="#2563eb" stroke-width="2" stroke-dasharray="2,3"/>
  <polyline points="90.0,112.5 140.8,96.6 191.7,123.6 242.5,218.2 293.3,314.9 344.2,318.1 395.0,336.3 445.8,368.3 496.7,388.2 547.5,399.7 598.3,405.7 649.2,409.6 700.0,410.5" fill="none" stroke="#eab308" stroke-width="1.5" stroke-dasharray="5,3"/>
  <polyline points="90.0,281.0 140.8,281.3 191.7,283.8 242.5,302.6 293.3,308.1 344.2,315.2 395.0,326.3 445.8,336.2 496.7,358.4 547.5,380.5 598.3,390.1 649.2,401.6 700.0,407.8" fill="none" stroke="#f97316" stroke-width="1.5" stroke-dasharray="5,3"/>
  <polyline points="90.0,306.3 140.8,307.9 191.7,308.1 242.5,311.6 293.3,314.4 344.2,317.1 395.0,329.4 445.8,344.1 496.7,363.2 547.5,387.7 598.3,400.5 649.2,407.0 700.0,410.3" fill="none" stroke="#16a34a" stroke-width="1.5" stroke-dasharray="5,3"/>
  <polyline points="90.0,390.2 140.8,390.0 191.7,390.1 242.5,390.1 293.3,390.1 344.2,390.8 395.0,391.0 445.8,392.1 496.7,394.0 547.5,398.7 598.3,401.8 649.2,406.4 700.0,409.6" fill="none" stroke="#2563eb" stroke-width="1.5" stroke-dasharray="5,3"/>
  <polyline points="90.0,410.6 140.8,406.8 191.7,400.9 242.5,396.3 293.3,396.1 344.2,379.3 395.0,357.9 445.8,348.0 496.7,339.3 547.5,331.5 598.3,318.3 649.2,311.2 700.0,249.9" fill="none" stroke="#eab308" stroke-width="2.5" stroke-linecap="round" stroke-linejoin="round"/>
  <circle cx="90.0" cy="410.6" r="3" fill="#eab308" stroke="white" stroke-width="1"/>
  <circle cx="140.8" cy="406.8" r="3" fill="#eab308" stroke="white" stroke-width="1"/>
  <circle cx="191.7" cy="400.9" r="3" fill="#eab308" stroke="white" stroke-width="1"/>
  <circle cx="242.5" cy="396.3" r="3" fill="#eab308" stroke="white" stroke-width="1"/>
  <circle cx="293.3" cy="396.1" r="3" fill="#eab308" stroke="white" stroke-width="1"/>
  <circle cx="344.2" cy="379.3" r="3" fill="#eab308" stroke="white" stroke-width="1"/>
  <circle cx="395.0" cy="357.9" r="3" fill="#eab308" stroke="white" stroke-width="1"/>
  <circle cx="445.8" cy="348.0" r="3" fill="#eab308" stroke="white" stroke-width="1"/>
  <circle cx="496.7" cy="339.3" r="3" fill="#eab308" stroke="white" stroke-width="1"/>
  <circle cx="547.5" cy="331.5" r="3" fill="#eab308" stroke="white" stroke-width="1"/>
  <circle cx="598.3" cy="318.3" r="3" fill="#eab308" stroke="white" stroke-width="1"/>
  <circle cx="649.2" cy="311.2" r="3" fill="#eab308" stroke="white" stroke-width="1"/>
  <circle cx="700.0" cy="249.9" r="3" fill="#eab308" stroke="white" stroke-width="1"/>
  <polyline points="90.0,412.5 140.8,411.0 191.7,408.1 242.5,403.9 293.3,394.9 344.2,378.3 395.0,350.7 445.8,301.7 496.7,253.4 547.5,220.3 598.3,137.8 649.2,127.8 700.0,125.4" fill="none" stroke="#f97316" stroke-width="2.5" stroke-linecap="round" stroke-linejoin="round"/>
  <circle cx="90.0" cy="412.5" r="3" fill="#f97316" stroke="white" stroke-width="1"/>
  <circle cx="140.8" cy="411.0" r="3" fill="#f97316" stroke="white" stroke-width="1"/>
  <circle cx="191.7" cy="408.1" r="3" fill="#f97316" stroke="white" stroke-width="1"/>
  <circle cx="242.5" cy="403.9" r="3" fill="#f97316" stroke="white" stroke-width="1"/>
  <circle cx="293.3" cy="394.9" r="3" fill="#f97316" stroke="white" stroke-width="1"/>
  <circle cx="344.2" cy="378.3" r="3" fill="#f97316" stroke="white" stroke-width="1"/>
  <circle cx="395.0" cy="350.7" r="3" fill="#f97316" stroke="white" stroke-width="1"/>
  <circle cx="445.8" cy="301.7" r="3" fill="#f97316" stroke="white" stroke-width="1"/>
  <circle cx="496.7" cy="253.4" r="3" fill="#f97316" stroke="white" stroke-width="1"/>
  <circle cx="547.5" cy="220.3" r="3" fill="#f97316" stroke="white" stroke-width="1"/>
  <circle cx="598.3" cy="137.8" r="3" fill="#f97316" stroke="white" stroke-width="1"/>
  <circle cx="649.2" cy="127.8" r="3" fill="#f97316" stroke="white" stroke-width="1"/>
  <circle cx="700.0" cy="125.4" r="3" fill="#f97316" stroke="white" stroke-width="1"/>
  <polyline points="90.0,412.8 140.8,411.6 191.7,409.2 242.5,404.8 293.3,396.0 344.2,379.0 395.0,352.9 445.8,313.1 496.7,267.2 547.5,262.0 598.3,257.8 649.2,252.0 700.0,244.1" fill="none" stroke="#16a34a" stroke-width="2.5" stroke-linecap="round" stroke-linejoin="round"/>
  <circle cx="90.0" cy="412.8" r="3" fill="#16a34a" stroke="white" stroke-width="1"/>
  <circle cx="140.8" cy="411.6" r="3" fill="#16a34a" stroke="white" stroke-width="1"/>
  <circle cx="191.7" cy="409.2" r="3" fill="#16a34a" stroke="white" stroke-width="1"/>
  <circle cx="242.5" cy="404.8" r="3" fill="#16a34a" stroke="white" stroke-width="1"/>
  <circle cx="293.3" cy="396.0" r="3" fill="#16a34a" stroke="white" stroke-width="1"/>
  <circle cx="344.2" cy="379.0" r="3" fill="#16a34a" stroke="white" stroke-width="1"/>
  <circle cx="395.0" cy="352.9" r="3" fill="#16a34a" stroke="white" stroke-width="1"/>
  <circle cx="445.8" cy="313.1" r="3" fill="#16a34a" stroke="white" stroke-width="1"/>
  <circle cx="496.7" cy="267.2" r="3" fill="#16a34a" stroke="white" stroke-width="1"/>
  <circle cx="547.5" cy="262.0" r="3" fill="#16a34a" stroke="white" stroke-width="1"/>
  <circle cx="598.3" cy="257.8" r="3" fill="#16a34a" stroke="white" stroke-width="1"/>
  <circle cx="649.2" cy="252.0" r="3" fill="#16a34a" stroke="white" stroke-width="1"/>
  <circle cx="700.0" cy="244.1" r="3" fill="#16a34a" stroke="white" stroke-width="1"/>
  <polyline points="90.0,413.7 140.8,413.5 191.7,412.9 242.5,411.8 293.3,409.7 344.2,405.6 395.0,397.4 445.8,382.4 496.7,356.2 547.5,325.7 598.3,272.6 649.2,237.4 700.0,210.0" fill="none" stroke="#2563eb" stroke-width="2.5" stroke-linecap="round" stroke-linejoin="round"/>
  <circle cx="90.0" cy="413.7" r="3" fill="#2563eb" stroke="white" stroke-width="1"/>
  <circle cx="140.8" cy="413.5" r="3" fill="#2563eb" stroke="white" stroke-width="1"/>
  <circle cx="191.7" cy="412.9" r="3" fill="#2563eb" stroke="white" stroke-width="1"/>
  <circle cx="242.5" cy="411.8" r="3" fill="#2563eb" stroke="white" stroke-width="1"/>
  <circle cx="293.3" cy="409.7" r="3" fill="#2563eb" stroke="white" stroke-width="1"/>
  <circle cx="344.2" cy="405.6" r="3" fill="#2563eb" stroke="white" stroke-width="1"/>
  <circle cx="395.0" cy="397.4" r="3" fill="#2563eb" stroke="white" stroke-width="1"/>
  <circle cx="445.8" cy="382.4" r="3" fill="#2563eb" stroke="white" stroke-width="1"/>
  <circle cx="496.7" cy="356.2" r="3" fill="#2563eb" stroke="white" stroke-width="1"/>
  <circle cx="547.5" cy="325.7" r="3" fill="#2563eb" stroke="white" stroke-width="1"/>
  <circle cx="598.3" cy="272.6" r="3" fill="#2563eb" stroke="white" stroke-width="1"/>
  <circle cx="649.2" cy="237.4" r="3" fill="#2563eb" stroke="white" stroke-width="1"/>
  <circle cx="700.0" cy="210.0" r="3" fill="#2563eb" stroke="white" stroke-width="1"/>
  <text x="90.0" y="428.0" text-anchor="middle" fill="#374151" font-size="8.5">8 B</text>
  <text x="140.8" y="428.0" text-anchor="middle" fill="#374151" font-size="8.5">16 B</text>
  <text x="191.7" y="428.0" text-anchor="middle" fill="#374151" font-size="8.5">32 B</text>
  <text x="242.5" y="428.0" text-anchor="middle" fill="#374151" font-size="8.5">64 B</text>
  <text x="293.3" y="428.0" text-anchor="middle" fill="#374151" font-size="8.5">128 B</text>
  <text x="344.2" y="428.0" text-anchor="middle" fill="#374151" font-size="8.5">256 B</text>
  <text x="395.0" y="428.0" text-anchor="middle" fill="#374151" font-size="8.5">512 B</text>
  <text x="445.8" y="428.0" text-anchor="middle" fill="#374151" font-size="8.5">1 KiB</text>
  <text x="496.7" y="428.0" text-anchor="middle" fill="#374151" font-size="8.5">2 KiB</text>
  <text x="547.5" y="428.0" text-anchor="middle" fill="#374151" font-size="8.5">4 KiB</text>
  <text x="598.3" y="428.0" text-anchor="middle" fill="#374151" font-size="8.5">8 KiB</text>
  <text x="649.2" y="428.0" text-anchor="middle" fill="#374151" font-size="8.5">16 KiB</text>
  <text x="700.0" y="428.0" text-anchor="middle" fill="#374151" font-size="8.5">32 KiB</text>
  <text x="395.0" y="46" text-anchor="middle" fill="#9ca3af" font-size="10">Linux VM on a 2018 Mac Mini, Intel Core i7-8700B @ 3.20GHz, 6 cores, performance governor, turbo off</text>
  <line x1="105" y1="454" x2="119" y2="454" stroke="#eab308" stroke-width="2.5"/>
  <circle cx="112" cy="454" r="2.5" fill="#eab308"/>
  <text x="125" y="458" fill="#374151" font-size="11" font-weight="500">libzmq v4.3.5</text>
  <line x1="250" y1="454" x2="264" y2="454" stroke="#f97316" stroke-width="2.5"/>
  <circle cx="257" cy="454" r="2.5" fill="#f97316"/>
  <text x="270" y="458" fill="#374151" font-size="11" font-weight="500">omq-tokio (ST)</text>
  <line x1="395" y1="454" x2="409" y2="454" stroke="#2563eb" stroke-width="2.5"/>
  <circle cx="402" cy="454" r="2.5" fill="#2563eb"/>
  <text x="415" y="458" fill="#374151" font-size="11" font-weight="500">zmq.rs v0.6.0 (MT)</text>
  <line x1="540" y1="454" x2="554" y2="454" stroke="#16a34a" stroke-width="2.5"/>
  <circle cx="547" cy="454" r="2.5" fill="#16a34a"/>
  <text x="560" y="458" fill="#374151" font-size="11" font-weight="500">rzmq v0.5.18 (MT)</text>
  <text x="395.0" y="472" text-anchor="middle" fill="#9ca3af" font-size="9">ST = single-threaded   MT = multi-threaded</text>
  <line x1="145" y1="494" x2="159" y2="494" stroke="#6b7280" stroke-width="2" stroke-dasharray="2,3" opacity="0.7"/>
  <text x="165" y="498" fill="#6b7280" font-size="10">CPU % (left)</text>
  <line x1="290" y1="494" x2="304" y2="494" stroke="#6b7280" stroke-width="2.5"/>
  <circle cx="297" cy="494" r="2" fill="#6b7280"/>
  <text x="310" y="498" fill="#6b7280" font-size="10">GB/s (inner right)</text>
  <line x1="455" y1="494" x2="469" y2="494" stroke="#6b7280" stroke-width="1.5" stroke-dasharray="5,3"/>
  <text x="475" y="498" fill="#6b7280" font-size="10">msg/s (outer right)</text>
</svg>
